<mxfile host="Electron" modified="2024-01-09T10:18:51.635Z" agent="Mozilla/5.0 (Windows NT 10.0; Win64; x64) AppleWebKit/537.36 (KHTML, like Gecko) draw.io/22.1.16 Chrome/120.0.6099.109 Electron/28.1.0 Safari/537.36" etag="bn2Xzh9hZRlIc7ygwXRM" version="22.1.16" type="device">
  <diagram id="To2Da4PRRWEcok_Ws3eM" name="Page-1">
    <mxGraphModel dx="901" dy="534" grid="0" gridSize="10" guides="1" tooltips="1" connect="1" arrows="1" fold="1" page="1" pageScale="1" pageWidth="1100" pageHeight="850" background="#ffffff" math="0" shadow="0">
      <root>
        <mxCell id="0" />
        <mxCell id="1" parent="0" />
        <mxCell id="U9BXROCJ1NUDgVGQcWaG-12" value="" style="shape=flexArrow;endArrow=none;html=1;rounded=0;fillColor=#125678;endFill=0;strokeColor=none;exitX=0.977;exitY=0.583;exitDx=0;exitDy=0;exitPerimeter=0;" parent="1" edge="1">
          <mxGeometry width="50" height="50" relative="1" as="geometry">
            <mxPoint x="428" y="379.9860000000001" as="sourcePoint" />
            <mxPoint x="503" y="380" as="targetPoint" />
          </mxGeometry>
        </mxCell>
        <mxCell id="x1U3f-q_ZyOh6508jXwm-1" value="" style="rounded=1;whiteSpace=wrap;html=1;fillColor=none;strokeColor=#125678;" parent="1" vertex="1">
          <mxGeometry x="402" y="477" width="240" height="90" as="geometry" />
        </mxCell>
        <mxCell id="x1U3f-q_ZyOh6508jXwm-20" value="" style="shape=flexArrow;endArrow=classic;html=1;rounded=0;fillColor=#FF6666;entryX=0;entryY=0.5;entryDx=0;entryDy=0;strokeColor=none;fontFamily=Consolas;fontSource=https%3A%2F%2Ffonts.googleapis.com%2Fcss%3Ffamily%3DConsolas;verticalAlign=top;labelPosition=center;verticalLabelPosition=bottom;align=center;" parent="1" edge="1">
          <mxGeometry width="50" height="50" relative="1" as="geometry">
            <mxPoint x="242" y="522" as="sourcePoint" />
            <mxPoint x="382" y="521.5" as="targetPoint" />
          </mxGeometry>
        </mxCell>
        <mxCell id="x1U3f-q_ZyOh6508jXwm-25" value="INCOMING TRAFFIC" style="text;html=1;strokeColor=none;fillColor=none;align=center;verticalAlign=middle;whiteSpace=wrap;rounded=0;fontColor=#125678;fontFamily=Consolas;fontSource=https%3A%2F%2Ffonts.googleapis.com%2Fcss%3Ffamily%3DConsolas;" parent="1" vertex="1">
          <mxGeometry x="242.38000000000005" y="477" width="119.62" height="35" as="geometry" />
        </mxCell>
        <mxCell id="x1U3f-q_ZyOh6508jXwm-26" value="INTERNAL TRAFFIC" style="text;html=1;strokeColor=none;fillColor=none;align=center;verticalAlign=middle;whiteSpace=wrap;rounded=0;fontColor=#125678;fontFamily=Consolas;fontSource=https%3A%2F%2Ffonts.googleapis.com%2Fcss%3Ffamily%3DConsolas;" parent="1" vertex="1">
          <mxGeometry x="662" y="477" width="119.62" height="35" as="geometry" />
        </mxCell>
        <mxCell id="x1U3f-q_ZyOh6508jXwm-27" value="" style="shape=flexArrow;endArrow=classic;html=1;rounded=0;fillColor=#d5e8d4;entryX=0;entryY=0.5;entryDx=0;entryDy=0;strokeColor=none;fontFamily=Consolas;fontSource=https%3A%2F%2Ffonts.googleapis.com%2Fcss%3Ffamily%3DConsolas;verticalAlign=top;labelPosition=center;verticalLabelPosition=bottom;align=center;" parent="1" edge="1">
          <mxGeometry width="50" height="50" relative="1" as="geometry">
            <mxPoint x="661" y="522" as="sourcePoint" />
            <mxPoint x="801" y="521.5" as="targetPoint" />
          </mxGeometry>
        </mxCell>
        <mxCell id="U9BXROCJ1NUDgVGQcWaG-1" value="" style="shape=flexArrow;endArrow=none;html=1;rounded=0;fillColor=#125678;endFill=0;strokeColor=none;exitX=0.5;exitY=0;exitDx=0;exitDy=0;" parent="1" source="x1U3f-q_ZyOh6508jXwm-1" edge="1">
          <mxGeometry width="50" height="50" relative="1" as="geometry">
            <mxPoint x="453.99999999999994" y="837" as="sourcePoint" />
            <mxPoint x="522" y="397" as="targetPoint" />
          </mxGeometry>
        </mxCell>
        <mxCell id="U9BXROCJ1NUDgVGQcWaG-21" value="" style="shape=flexArrow;endArrow=none;html=1;rounded=0;fillColor=#125678;endFill=0;strokeColor=none;exitX=0.977;exitY=0.583;exitDx=0;exitDy=0;exitPerimeter=0;" parent="1" edge="1">
          <mxGeometry width="50" height="50" relative="1" as="geometry">
            <mxPoint x="545.84" y="379.4960000000001" as="sourcePoint" />
            <mxPoint x="620.84" y="379.51" as="targetPoint" />
          </mxGeometry>
        </mxCell>
        <mxCell id="d_W-IH1Dgt0DjSVD5k53-4" value="CORAZA" style="text;html=1;strokeColor=none;fillColor=none;align=center;verticalAlign=middle;whiteSpace=wrap;rounded=0;fontColor=#125678;fontFamily=Consolas;fontSource=https%3A%2F%2Ffonts.googleapis.com%2Fcss%3Ffamily%3DConsolas;" parent="1" vertex="1">
          <mxGeometry x="339.49000000000007" y="327" width="119.62" height="35" as="geometry" />
        </mxCell>
        <mxCell id="d_W-IH1Dgt0DjSVD5k53-6" value="REQUESTS" style="text;html=1;strokeColor=none;fillColor=none;align=center;verticalAlign=middle;whiteSpace=wrap;rounded=0;fontColor=#125678;fontFamily=Consolas;fontSource=https%3A%2F%2Ffonts.googleapis.com%2Fcss%3Ffamily%3DConsolas;" parent="1" vertex="1">
          <mxGeometry x="400" y="414" width="119.62" height="35" as="geometry" />
        </mxCell>
        <mxCell id="FgM9xjwpMgHeSCbTRHYV-1" value="" style="shape=image;imageAspect=0;aspect=fixed;verticalLabelPosition=bottom;verticalAlign=top;image=https://avatars.githubusercontent.com/u/90621731?s=200&amp;v=4;" parent="1" vertex="1">
          <mxGeometry x="375" y="348" width="56" height="56" as="geometry" />
        </mxCell>
        <mxCell id="FgM9xjwpMgHeSCbTRHYV-3" value="&lt;font data-font-src=&quot;https://fonts.googleapis.com/css?family=Consolas&quot; color=&quot;#125678&quot;&gt;API&lt;/font&gt;" style="shape=image;html=1;verticalAlign=bottom;verticalLabelPosition=top;labelBackgroundColor=#ffffff;imageAspect=0;aspect=fixed;image=https://cdn2.iconfinder.com/data/icons/competitive-strategy-and-corporate-training/512/196_Api_app_coding_developer_software_app_development-128.png;labelPosition=center;align=center;fontFamily=Consolas;fontSource=https%3A%2F%2Ffonts.googleapis.com%2Fcss%3Ffamily%3DConsolas;" parent="1" vertex="1">
          <mxGeometry x="501.00000000000006" y="353" width="46" height="46" as="geometry" />
        </mxCell>
        <mxCell id="P_P5RHC5jd1icgn2Sx9M-3" value="" style="shape=image;verticalLabelPosition=bottom;labelBackgroundColor=default;verticalAlign=top;aspect=fixed;imageAspect=0;image=data:image/png,iVBORw0KGgoAAAANSUhEUgAAARgAAAEYCAYAAACHjumMAAB1qklEQVR4nOxdCVQb19W+YtWCAIkdJPZVwthgsMEbOIm32HEWG7I2m9NmcdrUTtv8TZsaN23SprXdNnXaNHHTLI1jcJrEsRPbsWO8AfEGNgjbmF3sO0hCCCH0HwkwEpo3mhnNSMLhy3knZmY0b//mvvvuu9dNr9fDLGYxi1kwARdHF2AWs5jFrYtZgpnFLGbBGGYJZhazmAVjmCWYWcxiFozBzdEFmIXzQakdW141qFtWpxyFNKF7UTzf7STWc+/UDm0Tc1wgztsNonhu211Y9i/rLJwbrNldpFsftYrRzEt9WrHh381DY7kXekdAOzZ+7+rgaG7lwCjyt/sW++bnhXO2Y91j7W1DDh6+GwsW+LnLhR4upYa/QzkukOXvUWggIZ4bC3ICPUu4bqxm22s3C2fGrARzi0A+pMss7R4R92rGYo53aNJGxkB0okOTNajF4ACrkobtoohiVA/HO0YMpCaevPbX6qHc6c9l+rmDmOtaGMR2gWWBHoUcVxbcGcYunF273xqYJZgZiqIOzbaizhHY26DOr1agJRBMWBVa9cSeRUm/hPhp/KHSHq0hGYnn7zfMCeixKE7RHF+3oi0JXrPLrxmKWYKZATCsZg40q3Mv9GhzKwe0oi+bh7PGbt51wplHaNVt/aH364ZyACDnZ5cG86O9XOUL/DxK14V5yub4uh9J8XUvpaOos2AWswTjpBgdg8A3riqePdQynFvcPSJFP8mEDs35SKtOqRPXKdXiTxrVBikn33Dtx/G8wqfjuLulPu6YSuhZOB6zBONE+KJZnWsglAs92syyCaWsY0CUtJjeIMAnujerVbmGZPj32lDPkvvEnCML/d2PSH1mpRtnwSzBOBC1itHMQ63Dq75sVq861q7JYjY3BqQSxjcg9YSLfah1OMuQDNKNmOsKa8PYhbcFeRauD+OUeLrC7G6VgzBLMA7AJw1D2/Y3qaWfytUWuyrMgSob4Gp5Tf7N0LKKQrHlKh38s1qVa0gcNxb8Iskr/6lYXpGI6zq7lLIzZgnGTijt1mS+Xa3aerRteEmrWheC/zTDOhBGXu9oeyrsSqlH9bC9QpG/vUIBSwM8Sh6J4h65M4y9R8R1nZVq7IBZgmEYpzs12dsuD+w+0aHBUdROB92TlcXM6+0gwBCH9Uqd7tJkGZJhGfXHVJ/CX0j4eXYp2vcYswTDAK4PajM/qh+671jb8JLS7hGGdStEwJR0QdBexgzOIZ29VDaQ+1LZgP7+CE7hBjGncEMEd9a4jwHMEgyNaFPrJG/IBnf/5aoih/pbWJj/vHXA8LY6ydfva1DnGpLo4gD8c6Fv/tow7GMRs6CGWdKmAXLVqCT/8sCOiP+1yGwjF5iYIRNJb+9kkv2Mgt7m1Dw0CutOdOfPOdjetL9xaIuja3SrYFaCsQEFjarc1yoGd1zuG7FiszJTRBGMJQ+VowK0gGX2P3uhsl8rzj3dsxNO9+x8IdFr5w9jvfZIfd2r7FuKWwezEgwFFLUPZ0u/aK28/2R3weXeEbH1D+SEhEDDl3aGihgUQLcUR77p/npNuTX5YLvsh6W9BUzW9FbGLMGQQEmXJvP+k13Fy492FFUNaEnsCk2AVo6xYbLRRmYzieioLz3fvaHM9fmkWb+janBLj0YncnRNZhJmCYYAxvQAa493nFj0dVtJQaMqa8ZLGnQV/3sknQ1qx+BnF/t3pnzZLv+mdXiro8szUzBLMDhQjY6J/lAxsC3iU3nTV83qHGrzgO7J56QT1ZHSmR3brFWtg5XHO3dsONlVXNmvldilbWcwZj3aIVDUPpz94+96dlf2U1gK0QWGFZwpAne4W8zLn+5rJcHbHaS+7ob/F3q6snAVnK1DuserB7URZb0jMKAdM7vXodblflinkqpGZ/gYw+mHh6N4hR8t8Z812ENglmCmQa4aFf30XE/B/5qG7GwgRz+bBLJdIDuYXRjCcYUlgexCw7U0Pw+I4bsX0p6ZFQyNjolOtGuyhkbHoEszJjnZPizt0ugyT7QP23Bq3Dl25+YJ3OVPxXnt2pzovcvRZXE2zBLMBDQ6veiPlf2b3r6ueLlVrfNwdHnIwCCBrA3jlkR6uTUvDZoglCC23UmEKpTaMdHXLeqsvpEx0bE2dda1AW1mRb8j3VUQgSW53RbsKf/bAuFqqa/H7Lb2BGYJBgAu92qy1x3rKGoeIup6kuKXk8YP7j3h3KJFAeyiF6U+t6w7yTMdw9lftag3/6lyIJfWVRbD7fVINK/wwyUBs8umWYIB+OXF3h1/qOh3+l2BOG93eVYgu3SdiFu4KoxT4u3u8r06DVzeO5J5vE2d+12XRry/UZVLbtTan4Elvu6yf2b6bV86gyRJJvC9Jpjbj7RWfts27DglLgE8Fccv/F2acHcQZ9aXiSneuja4bV+DKvdUhyP6jzhhFWYHbN0Yyfve6ma+lwTzYY1iy/Ol3TsHp+16kAYD4T/ivd1hnZi7c1Mcv1Di6zHr+pEAPm9S5e65odxysNneinliyIvkyf6cLlwt5rl9r6RO+L4RjFw1Klr7Tdvhij48J9r2R4rAQ35PBG/Pw9H8I/F28CfbqBzNPNc9vnvTodZlFncOiyd1HDo9CG8Mam+vVWhhiIDiw0ChAWxXkPq6y/3ZrjfLHsJxhfl+niUcN1Yzx5UFK0K5JZ6uzAdaOyAfyv2oVpF7oGkoVzNGdmxTWEoR/Imvhwu8kOSdnz9P8L06rf29IZijLUO/euhkx+96NDqMu47RkuZF8gqfl/jsXhrEYWz582714LZm1aiBLHLerh7MGRwhKLUxFJwtw99TdqeIa9RLrA7jVGUGMKOj0Oj0ktcr+nMLG5S5VY60ZTIDCzZEcAv3Lw/63iiAvxcE8/TZzoJ/XR/E939rJ44JZLvCk3HehQ9Ge+1MEXrSJq00KLSZ57s14vPdmtwGpRa+bVPn9mhsXALaCckCD3mSj3tpTjCnJIDj2rwh0uuAC4CGrvfvuaHYcqBJtemAfMgpiCbO2x3+nC7MWx/Ou+UVwLc8wfzsXHfBjsp+OzrXNoEJabkAwCvzhPn5qULaRGS5alSyp3ow9/0aRb6BVDAznqHIjeTJVodxC5+M96atvQzku/Vc93NnOocxfPbYv80q7xFJb3WbmVuWYJqUWtE9x9sOl/WQ8YVrDRSUtj7uuk3x3n99MJq/y1YlX1X/iORkm3rViTZ11skOdW6nGmu5h4DDOMf2jFeGcWQirlvVOjGv8N4I27/6JZ3Dmbtk/TsLG1T2VwqbNIdBmn020Tt/2zzh9pn/ScDGLUkwF7uHs+851kbCcI4ZvDJPWPjbND+b1tuGRc7rl3u37a9X5pb3Opdy2jGkxYIn4viFP07y2Z3q52mT7qp1aDR7zdG23VccrPR/OcW38PfzbRsnzopbjmAK6xW5ed+2M+MgiKhD6RTBzs1JPnvEPGqe0LRjIPpv7WDuV3JV1uEWVa5Cy1QfzeDvJgsg1ttdvjHSq3S9mLczK5BNWZ+1v0GZu6Oyf0tp1zABiYaZNssOZss+XBZ0y21l3zIE06IaFb1Q2nn40walQ75GIp6b/Jcpwl3PSXwpGVXp9AB/k/VtOdw8tOloCwFl5AzmBmzYVqFgjiusCOUWPpXgXbgsmENpGSXrG5G8da0//62rVjYETEFjP/h6uMCXd4RsXRLEuWUM824ZgpF+2lBZ1e8YUTcnmFP0fnbw5nAvahLLc2c7Cv5xbcDKoHaOcB8zARJfD/hDun/eXRR3aY42D+WuOtrqMDeZf830z/+JxPeWsJeZ8QQzotNLHilqyzcsjai9gXqYkAx/tmx7mt/2NWLyA/lshzpzX51i65tVDtrhogw7MBFNWUh8PWSb4r335EXxC0Uklx49wzrJ61f6Nr1bPbB1gKjtEBLkK1SwPDgvN8prxm9jz2iC6VCPSu74Si6r7Buxe97/Xhac/0S8D+mvTGWfRvJ8cefuk+1qG8Ob3EpgnrR+kyrMN3wMyP5OPTqWveRQ8+5LtO5GEsO3a8JylodwZ/QZtBlLMMO6Mcn8zxoPV/VbCxlCL24L4ZbsXhz4VKKvJ6nlUEmHOnNHRe/WTxuUDEosLNw/v+8Q8dzkm+J99mxK8N4j5rmTkmj+XtW/7Y9X+jY1q0bJjzcb+mHPkqCdT8Z7v0j9DY7FjCSYqj6N5OGiVll5j63GnuR6fluqX2H+fHLuEQdHxrKfOdO+eW8d1SWcs2HmR5708XCBfy0OysuL5pNaglzrH5HkfdtWUNFHRpqxvZF2LvQv2pIsWG7zixyAGUcwcqVWtOhAYzGlLwlFzBF6yvfeFrpaKiAutXSqRyU7Kno3vXGlF+FrZobOToeCXnKT+HrIfj1PuOfBGOKuLkfHQPT78p5Nr5b35OvsOHV+OVdY+Fr6zPP9O6MIpk+jkyz9svGwrE8zjVyYmaxhXDf5ljnCPS+mEDfv79foJK9c6M7/e1Uf/RILbdWcJTdTSHw9ZT+R+u55Oom4iUGjUpv55Kn2d79tU9tNN/PLFEHhaxkzy1PejCGYq30aiXR/ncxepV0YwIGPlodKY32InxV5+XxXwevlPTN3KUQr78w8EovwcoODK0XSZCFxSfWtqr5tm4s7823PnZh09qcF/kU/myOcMculGUEw9YoRyR0Hmw7XKWh2BI3oyJ8mCwt3ZRE/Ui/r00heudD17mcNCgbOtth3ot4h8oIlwVzgubtAIMcNfDxcDcs9GBjRQc+wDs53qsHFBWBREBe83F0ggOMGvh6u0K4eBcWIDmoHR+Bil9r4HCk4CbkZfvmHDP+dv5jrR1ix+knt4OZfXeh+ifbxicDbS4IKf5ToOyMkmRlBMDlfNpw42TaE2NaldwJum++fnz8/gPCS6C1Z77bNZzvyGSoOQ7As5P2xPvDLtEBSb8EbOWN6PWw92wYnW1UUykcTbOiLrEAO7FkWLE0iuFs4otNLUj9rKLCXsefxO8U5t4U6/xa20xPM3Ueaig80Khk/9Sriucs/XSF6cUEgMTPz7zrVmc+cbnu3vMfUJ6yTsQuB4qyL4EN+RjC4sJgpe1mXGn5/qRPqBrF2/JysvabBULrfpPnnb5kj2OPj4Wp1W7ttaFT054renTuv9OZavIjWUo2j4LbQvFySO2H2htMSjFypFa3+qulwFZktQYodmRXIkf1vpXh1MNe6tadhEP3qfOfO9647mwUu+cq/lhkMq8K9aS8J1oh6ubQNjsoVtOdFHcTbS8Rzk/8uPWDPYwQNKz+tH8x9+nRHAbb3RHrxxoKA/J/PJW9AaC84LcHcc6Sp8osGBUPi5tTgemmeX+EfFhLTt8j6NJK8Y80FpEjPSfF2jhjmB3Ix7/UNj0Jhbb/ZNYOE81iiENwngjANaHSwr8b8mVCeO6yNQBPW7y+0w+f1g7SU3xHCzwMx3oV7bwsjNFbOdamznyhq222PJdM7S4Pzn0p0zrNLTkkw/6rq3fH06TbGYxVtlgoK/74klNCA+VN597YdV3ryO9S2+pixYWbQNKmeSBTCc3MCLK7XDWhgd2UXnMLRm0iFbKPStwvRDm4sFuTF+sLGGF8Q8S0DZP6qtBW+IS3JOM9SarWYV7IjM+gpCQGbKIMUvvxQY3HtILPKX8Pyvnh9xCKxFznrZHvA6QimqFWVvfzLhiKm83ljYVDRz+f5E9ru+9W5joLXyrqdbElkCuITMMzLHT67M9ri+v6aPnijrJPWUu1dGQnRPp5m1wwk9uDRBlrzoQbbSKsyN1pKxPCyZ1gnCfvvDZnGmlWejRya7s+Wnb83Ktm2t9AP1/x8GrbwacKVnuHcrM/qDjGZB4sFsPd28danJcJnrD1bNziSuepQ4+F9tYO3xMFEwxh+e3k4CDzdjH/rJ9I7sm5480oXjbmM41SrElL8OBDAcb95zZC3hwsLzncMoX42I1BQN7h5aFQPi4O5ta4sFnLdx3Vz6fpBnE9hy5A2EHtpTU/FW4dGA2V9mtx7I/kH8MpjbziVBCPdd6OSaf3GifVROTmhPKvbe8XtQ9kbjzYVtZF1u8lQuA86cJuID69lhZldO9ehgp+ckjOWZ5S3B3y8Ksri+vqDtchlljkcv6TEw/oIL9kXq8IJSQ745hb04NX0gPxfpxE3s2AaLo4uABhdROpFWZ/VVlb1DUunvqvWEnkUrBDnESGXvTX9WxZ/XkeeXIBI0fXMJSuZS4RsGAO9WfrbZXqXRdNRPzgCO8o6YEwPZml5GJ+uBkUnWtoVP4sDDUrpA8eaC+RKrchaTYruilyeG+3N6Lbyjis9+RW9GgmTeZCBUxDMxiONBaXtQ1Jy44f4BEvz95QrNkmkuTE+Vjv3/m+aCh46Jt9JbjA7CawU83YR36y5TrcooKZ/mHGy21/TZ5RWTK9mhfAc3VoEYb3/99UO5EZ/XC0vrLXmlRCg4A5R3usZgfkupAmQ2FDs14xBSmGt7NM6Em4/GYTDCeZA/eC2A3SZ2GM0OEsP8OFt4tVe7i5WFXI5X9SdKKgZyCXPHTZ8Ze1IWgFcd7McjhPYzXElsMxwwXpmWnWudA+ZXUoP4tEsoTkWo3qA+481FxS1qrKtPft/qf7bt88PIKn8JDd+XihmyPE9STiUYD6rG8i9+3BDPjMTVA9CTxfYtzI8TyJk45JL7/CoZP1XDcUnW1WW62NmikYgkV8C4aUUf87Nv8YmklKrQz6fHsCG5h8kwOjTyVB6bzT4s10tmiZZ6AlNjySA7ulkkOXFQTDHDdnGFT3qm9WYXCaRBtn2svNS1PDf8i/ri/4h691irSq/nh+4ncnlUotKC3d93Vg5otNbXboxCYcSzNZiZh0rF90dk2NtWVQ3qJFI91XLvmwczHIWSQMJGzgm1UAw0+ZHI6b5/jh+nOwHYbzx3Z+FQVzYnCy0eOmRtZEg9hp/RiL0hKUhXGQButRaixaL9La0k5kRsNLWz51u3fnyd+0nrL2mYIU4LzuEW0Ts40EeB5uU0tfKujZR+jFNcBjB/F9J646GwRHSa0yiqWBleN4cPzauQrdZqRXdfqDucLtNAdpoLjgD5PaYxB+eSA68KblMpjaVFvnqgRFzM/c1Yr7FM6E8d8LNodGNjedrIsG8sUQMEXx3p2wzW/F6WXfOK+c6rH5Ai9ZHLb8z3KvEetGpSVuvl3XlNyocF1jOIQRT0q7KfqOsa5qlLn2D6Nj66JzcGF+r4ufqL+sONwxqxTNw/E7AeoGWi/nwuDTAYoyeblEYTzyjftczbE4wBinGVNUyR+hpUZqiFiWypCWtKuidpuj157jDeytjIC2Aa0cusR+B/e5SV+7Oy93brPXiv7LDnsoM4lh7jBJGdHpY91XjPkZeTgB2Jxi5ckT06PGmIqbm4o5FIVtvF3nhSi6GMkj3XquUkdoWJ5hs3AWgc0LdGekLL2eEWRShc0gLb1/pwG3Hz+oGLK6tjfC6mZlkGsEYJJ6u4VHcAm491WjMe/qd/CwRRBiXSzSztT3a3CKZr0NfLGnL/6esB5dkwnjuVUfWRkqTfD3ktA6ACVT2aaRvV/VaJTomYHeCea6ouaCmX0OfbYIJtmUE5W+dF4jr9vBq37Bk8f9qiu1/YNEOo9ukjW4XecOL6aHg4sIye+qEfBCe+7YemhUjuK+60jMMfdNOA88P4Ny8f9e0Q41ETko3Dmrg+RP1UD+gMVP2ctxc4d0VMbAg2Mv+bUZyslLp7mdPtea//B3+ro63h2vVkXVRiyK83GkjN9P0zKmW/K+b7O943q4E8+r59m0HjcpUW2E5qbalB+XnZwTjWjDKFSOS9IJqmVwxIqZCYDMFYV4e8H8LRRbV+qiqC14tlUOPWktoxB6bRhopQjZkBXEh0dcT5gjZZvdONCsJTYLuoVF46mgtFMkHLG6/kikaP63N0JwnB3oJ6/VLnbmrD9bjKn7FXu7NdQ8nskRYui0aiv7syRa7b13bjWAaBkcyt51rZ+TgU5LAU/7r9OA9eM9odGOSh79pPDw0SiRKH7ZUYJ9k24QSst0gf9G4WslUofutfAA+qCJutRvEcTO6zTTFfTG+ULwhFq4+lGDc9jZFrA/WEged/nKpDVqVGrMPr4eLC+y+LRr9O0ctPWkityNyRc6+Gnw/QgZ+fXNpSB4TlWhUjsC6Q/WV9NSGGOxGMC+VtGzVM9TTH9wR8aKbC+AeVV95oHb36TaVXYO0UYNt5LYuWgAR3myzN9X2q+G10mbQEYyA+tayMGh/Qgp34vh2mY6t8wKh4wkprAkndgRAqdXBqyXNFhwR7u0JqyJ9CedrNzah6dUPHG0qKGpR4hrj3RPlU/irtEBGbGQONSmkl7qG7LZUsgvBnGhW5Bbc6M+lp5PMJ9QXd0blpwdycTsj73B9wakWZQ4xewM7ftJoRrQPGx5KCryp2zBUVzemh1fONBIireekftD8qASeTfanlH8gxw2+WhcNdY8kwQ/iBValjdqBYXjlbOOEidrUfw8nBdx0bOUYMEFaU2n5F7VFhVYkmefn+G2V+HrKmCjCI8fkO+zVknYhmMePN+5gYrL+5/bwreuj8N0YvnGpY4dZZ9LWURQkDFpHiiV+viDMYrL+60o7dFs5tSwRsOHcxnjYnS0y+ouxFVHeHvDBHeFQsCrS6JoBUI2v18P5NgV8IOs0s4/x47hDbrwfc0tPJ/g+/Ph0S4FcOYK0sg3mujdXPpiQnCz0tHFnyTJd7RsWv3Gp0y4kwzjB7CjrONGksBY/mnwjZYd5FT2W5Ie7Y3SiWZH9UnEL457xCIPWcWI+gZaE8Y1LI9PLl7tU8PmNbtwXSQSeIHsoETKCsN1n2oLcWF84sj7G6nN7r3ZZlGxdjJDm0liSmyP1Zx3qUaMdFt4zBmr+ZGXEahob4SZ+c759a79GZ/XclK1glGDKu4Yyf3amJYdmAoYEX0/5t/fG4XqjK+sayr3t8xsTnvHolh5skzSYwPpYPzOlrk6vh90XW3GLJuK5w2ECBGALcsK8oPLBxAkjPXRhXitpMrvC93CDDQYpZkaBHIFV9Q5LU/ddrxzSjiElGamQXbVvZUQu3ZsDGp0eflgkf47GymOCUYJ59XzbK0xMwP+ujHrRWsEfOdqwzTk4gXnS4rq5gMSfZ5bjmeZBkCvQZ40M+NsyEYi9mD8PJBWy4TcZQbhVKm4ZhPr+YbP5si7Gb8YRPVmUd6ulfyrrxD0vlBfru39DtI8M/03kyM2Q9tf0551tUzGq8GWMYP5X07fxf7X9d1p/ktxAeSDOt3A+jlK3b3hUlPxfWWVVr5qClS6lIjGXCLbZbRG+ZjoMw/g50dSH+/KH4wVwbzSZ3Rrb8Kv0YLhDjL/DdKyh72YJDVKYgOMOCQIOTe1p4/KHwU7dUd6Zf7RpcCNe2+xaGrY6jOdOu+vBF8+2MKqLYYxgNnxVV8jEB2T7wlBcW5pd5Z2bZL3DFK107coStBXHIL1Mv3yuVYEsThjPHT5aGWlb2UjC3YUF39wdC+OmNdgV+aqux2I+Z4X52LWcSNA2JCxJS6HVwaovawtlvWqkJzqxl0fzT1L899A9xr7rGBL/y8pRBlvACMG8daVzi0Uj0KBA++zO6Nx4Adq3i6xHLfnb5c58Oue47WCCtMzT/GC+2ZWDNd3oiusBnscIWWIvvDgPHZ52dEwPZ5r7zXRJ0b5su7ShQwbKtOyfLZLvxXv8F2lB2yUCNsbWtW0S2eaT8ny8HS1bQDvBdKm1kvzvWnfS/d4/LArdeU+MYD/q/tk2ZW7yf2WyAQ3GgTsmdwscPH6FHDdwd3UxWyJ9VNk+cdeyEEK2C7yUHsxMYQjgSYkfbht9LOswuyQN8AIcoYfmvrAXkWGn063KlLsO1uJa2l55MCk5nE/DUskkawOx/6W806qTLCqgnWCeL2raTcxbPHEkCtjwUnrIi3jP/Oh4gx1Pi1IcRHQTlh5gRaSfWak6h0ZAjXMc4scpgQ6NEBLny4aloTxkhYzHB6Y1z8ooLGWvjWCCI2jAwYYB6V8vdyLHsisL4LXMEMRSiXoBd5ZPd59CD2glmIsdqsyC6t4cOqUFFujhH8sjcDXd/6nq3oKt1J0poD6qvTxczZS71T1DuO35rAOXR5MwSjE4aFFozJZJfE9Ld52OljYwxxlNr/vzpY5NcgV6yfJwgt/29VE+aCtfJPAz3vB1He1+Y2glmD9epD/c6wtzgwpzRHzk0siA/NKWndhtxsSOgXNheYTQrHR9w1rksyIvdwji2m6payseT/LHbeKGAbXxucnuiBfSbwRIL+glrGalVvz78224aoYv1sagYzFRzPp/Nf15J5rpdelAG8GotDrRsaaBXErMj4CHCwu2pgXjktZdB6orGxUjdFVjHLjFZkKnQ53cPNxczJ643oOOK51l4W/FcRB4uiDrqZ+UyCauJAd43RL6MuLQw8fVvbmyHvSukgG/yQgmGV7Hevr7ZXp1MbQRzO7LnZv6hnUkOwy/skfujc8R8z2Qp6R3XmrbdrC+H8feZQaCJLlNvzQ2hkOCTtQmy3ACr/UaHYRP/Web0ojiZGOawKx0hUI7BncfqpWNjukTUM9sWxj6YoitvmOm4X91/VmUIj4gQBvBvFtpxXs5ycZfFOxVkiPyxnV9uausYxOhCUkzyzvTJ1A/ze+L81AIPjwstoam0K0eseRGp4UNY8QKedX2D8MrJS0/QuXswgI4dFcsNS8FOPhLeQdtUgwtBPOH8637bvSrxXRO0D8vE+Muje798kZls9VDlBNwCMfYh9zGjFLMVJo5FINoL70exsb0FhEQ7L30dBb84WL71rOtSqSVb2oAd//PUgPJL5Vw2mpXmRMRTOeQVvLLs/I8eoozjlURPrKsEH4p6v7e692bP6/tpclhN8NgmGOwa+P8EwlPDPfjedBfciIfA8ZIzDY8eLgO19/RE1J/XG+OZNGsHBHnf9dKi9mHzQTzRW3vKlrWoybp1wvCcH28/La05SVbyz0FhhmAYYKzeJuD+ZQozrYqkIUUsN0xlkhOVgEsMERgcoUGdl1qR0oVEiGnak2Edwmdnf7b71rzu9TWA/pbg80Ec7Cu30T3YvuEyxbxi5aE8ZGM/emNntxrvcMzOJbRdNhWeK3OXNEbg7OlW9k9ZNea4aEdFfQN49L1btN4S85H8vbAzrIO3G3rX8wP3kUnwRn++8JsblODTQRzqUO18UBdH63hPz5eE7sZ7/6fL7RZnnOyNTG9W8DgWD9W12WmqxBw0JESr/apYfwohWOxp7ILfVMPIJ7mOEvWSSxiAfVEVmdj/wHQrByBHZfakFJMjsi7cGOsgL6oAXqAT673rLL1NTYRzC9ON25GTkIK2BArLAz18kAeZjzWNJBd2q6kIewJFdhpMJF8hWoixOvkJZEPhnsDE+wqa7dDW+Hjs9pe3EoFebHNrgyZBem3E+zHHYQzfrMcX4opXBt7vw0ZW+C4XJGl0trm9Y4ywVztGco83jSQY37VpFIUxLItaSHvo/JrV42Inj1WV0RJ2nBa2D5qzzb13jwmYEjBXmzge7oh+2JPRafxcJuj0DiogUP1/cj7oXy2xQ7St/WmEg8TM58xtjCHjVk2Do7Ax9fwXSs8JQ0otPwtdQnt8aP1Nnm9o0wwb5a303osIDdeWLA4jH8Idf/PF1q31PQPE3yb3mayo57sS25dKg1ox8bMsrwzHu0SwSBq/62sjfmCIfAfWRdue62NDzK7Xd2lhFEdDUtU2uEYYnv4cE3+jb7hTFSpfpoaRMyTAcEs99/ozbvcNYTMzxooE8y/KztIHgvA7+lP1ibcj5ffXy7Rf86JGTBBbvhNeKl1wOzxlbFBuCV8p4J4ADa68Wb59CXaVMVcWHpYIDY/W9U4METPGGNivjsI/6roQM4FqR+39J4Y3yI6K7P/Ru99VMvqRuVHh+v7NmpGqbaw5e82zwsuxAuDs6Wofp/OVKynzd+AIx0XkIEe98+abiXMDxOYXZsT5A0V7ZYB7A241quG5QUyCLDzwcdrfcPQM4xWMt8WHTguvZvgXHMfhZzsNPsJZUP/GHu/qjt387xgSaS3J6a+8vXF4s1f1ffLRkgthdHPfnS164FXF4l+QaWslAjmD+dacHd6yOKRpADktrRKq5P85WKbuSEfbeNn4kUznLBK5T2QN9fcqHmhWIgkGAOKmgftUDIimGqzDJHArGtVI6NQ14s+vDkzQDfZsaBLPQqvnJXv/nBNLGZkjUQhp+ruaEFh4Y1e6iejTYZyg2JE/HVD/7Y1kb649mlYIL1EqulTZ55sHsihS84M4rpDZija7uUf5e1PkC0jadAmNlNY/tCQsXJkFGp7lGavjRE6z8lpfEzVI0Iw7lt4Urn7TU3HLaUvowfjhf3oWndO5xDaEO7ZuYGFNo2raW11oLYP92Q3CqQJ5p0rHTSFgB1PBXfFI1l2zCgtNf+MRgagkBgGDUVcERcEfE93s8vebHeHkB3VNuO4uRjPVZmerRL7cCDWj0d7k08Bf1I5++bAG+dbkXYxy8U+hWsifa2EOiGOf17pyGtSaEhb9pImmK/re1fRNQmT/biyZSIfpDOp3xY3betRjzqYE5yXtEL4bPjjnSlwn1QEflwPs0OPFe3orWDmq0qetNSjuvGym1ydGyqALUsT4IUlceDpZpcoxw4EebJ7T9aJu/GxPlpQSOeQO92sIG3ZS6rXmgY1ooruIQzLXWojMS/R7wgqrzbliOi10uZ8ShOXCU6glUtsf7FBavnp0njw8nS3sBsxpIvN+MZsRMkuJYALry4Ww+ENEtC/uOhmGvzxQihYFw8/SgnC95JHolrHazox51KcHx+eXxQLvmw36hICsx3qEPQOj8I/L7cj3Vw+Mzdou8jLXU6UsKylD6s6SVv2kiKYb5tsP5tgik1zgpGnQM+0DGZpx9DOq7FhN4ZwaJGWRQfA3cki4E1bFk2mTyvkcN5IMLYV8I1l4XD50Xnw60wxrIo0D9LG93CF3AR/eHtFDLQ/mwHzg3g2t9f/KpvhetcgZmkiBV7wXFYc9ZfT1v7ORVrPHq/H9WRwf4If0isBWRxpHCBtRU+KYL6q65XStcZMC+TJ8Y4FHKztfcA5PhpMkBb1gSfgeMCahFCL5lVrdXCsuh3e+LYKvr3RYVO2nq4s+HR9Ivw8g/iSu/jBOXBfnNDmOr95thre+a4G6nuVFlJZkDcHXsxOZGSiUgITpEVBIvvoahdSF7Mh3s+Krxhy+Kaxn9TOFCmCudKlWkm6RDdhXrG7Y4W4Piw+kHXcd/N5Kkoy+31EGIRlQZ9dFGchubQNqmFH0VX4vFIOTf0qmyu9PSsc7osjF3jew9UF/ntnAiwO5dvcD1fa+mHnqWvw8aV6i24W+/JgdUII4faiPzkJTIp0oKYXKVlkhfBLjfHHyZIb4gdHmSKYy53Kjdd71bTF8VwS5o2UXvZepeJ42MaBQ/cuAM1j1jCBX8yRGL/ipj9VarTwVvF1aFeoyTcZRmEWhnjBSwupuQFhu7nAW3fE2FZxk9vfNfbAe+dqLX61KjEMViWEOog77EFi5ApYJB/AnfT3xApxHVaRqeY3Df2kjg0QJpi/XWzNpUNRZEhRPp5wW4QAWek9FR2MRvxnBsyS28NpUcav9+SlMT1A79AI7Cy6Cv1DCN8qFMbsn7Jti1mdEsCDH6eiJAzybXa5tRf+fvoajOimzlsZ6r4yIRTWJIXSO1mdjzsIFbBLrYWDtWijugcS/GmIPjCOy11DxNzUToAwwfy7op02t5jPzgtBBrAf0Y3NP97Ql2UTidnek06FzUsTISVs6ozOpHPvf569Bt2qYVrJbanIdiH1tnBfWpu7tkcBx6vbbhLr5Ktvjw+FGD90dAJ8OAVj0FacD2SdSIJZFOZNg6J3KrPfljQRdqdJiGAO1/UiDjaSBwsAfr5AjDQ5/vXpBkpnHsyA2xn0SGHUCI487k2JgGg/b7PY06O6MfjjsQroUBA9XU4MOWJ6VsDrYoRIAqO69Dx6rRXKW3otWvSZJYkwJ0TghN8SpgnMPFlTvj4pDSygK7tvG/GXZKYgRDCXu5QIM2Hypbsv3h93Pfinc820OhB3CGgiN8PXeXF0kMVrvrneCh2KIdpnUTZNBOOGd3KVNKZq/smlOhgc1lo0VV5q1IQh3rSWcpC+zBHo14zCvy63IyWLZ+cFv0VXxU82D0qJNgUhgjnVNLCKLvZbHu5TgsqnskuVSX7Jw1RyLAxLomeWJlmUqqy5B7651mKVtHbkRMHDSQEgZLuSkLwcg2gfNvxuSQQ8IkH7sTFAqxuD14+WQ796xKxNPNxc4bGFZGxkbBgXtEq79A7Pf1xuQ0oW6cH8k3ECtpxEI+G22f7r3YSkGEIE81VdTxZdE3BhiDcyUuNp+QC2paBD+MNxpBXI58AjGXEW47GmaxD+e77G6u+P5M2BrRki+GhdIrQ9lwlpQcQOPo7oyBo24oDABOO4suAfK2Kh9kcZ8KuscPhwbcKEFIVur9ExPbxbct2iZaP9veGHixLpK79dQC/RlXcopfUDw8hDiakBXqV0fVNLWgfpIZjilgFE0CfyjSLme0B6CPrk9Bc3ujHOOdE3cW0sPg3JunTGYulhZWKYxU97hzTwv/I6q5n8bmkErIyc8g3j4eoCFx9Lgz1r4iHZn4vbZm+VtYJ8UEOtPU1QeA3HqfcEloi84fpTGfDMPPMdp6IHUiAzmI9uL70eOgeH4N/F12BArbl5QNKQovz5sFYqZkB3RnGMOQAX2hVIJ/x3xwpxQpuQaytZ9xAhWwarBHO0vk9K1wR7MgW9ezQ8OiY50oA2GMKHQ9iCnoFn8ioftgf8dHkKSMOEZhOnfXAI/nFKBl2KYdyi7FweA7/KisDM5sk5wVDySCq8sijCfPKavGBAMwr3fV5pU3W+axuEvANVyEKK+B5w8sG5cPqheSD29sR8x8GNyRCOuDeJ6s4B2HvB0kZmUUww3JWC3QZWQfbjQGeiaYzhbVdb03+SwdGGPkJz1SrBnGnuJ3ngEN04KQHoo/d/LG2yzQ2Ew0AfWT2aGQ8BfI7Z8rxLoYZdx6/AgHoEtxQvLhDBFium/V4ervDbJZGwbXEEsvgX2pTwSRV1l5rPHr2Be/+ze6WwzIoy2Y/jDl9tTLbaXg09g/Be8TWLubowMgiWxRG1xXES0ERux3F2k9huLs3Lby5Bbcf+691Wt6txCcZQjOMNVFwWTn+LHjhuLLgvIQC5Pf1lTTdFH78TiWmlGsNktyJJDME+PLPXGKQXIsui5eE+8HJmOOG88pdEwiuLwpHv+0VRLaU67Dwnh7J27BhGYTwPKHtsPqQHE7Nbkfrz4MKjaeDl7opb/ZrOAThwud683QBgWVwoZEYF2qnDbex8GtGi0EBVtwoZy3pjgn8+WdJCpfNtg1adUOESzDf1Nrjcm4a1MX5I8WxIq5NcxFk70gc7DSaSr7ktIQyy48Ms+nDPmavQ0K2wWqt/rU4AIYecf93fLo1CShJyhQbyzzSQep8Bf7nQjKzky1nhMI+gsnkS84P58EsCxHmuoRMaehRmveLh5gpr5kRCmA/PzvzheNIquN6NnEvPpYaSdnuJwt8vtVo1KcElmF61VkTXGjPKh410AnuotsdSzzMjYPvgyYoOhuWJlpFw91+sgfrugfG/ENKYj4crXHxsPsQKOJRK//7aRGTRPpK1g3yQuCGf8XkFtoI42Z8Hz6WFUSqjgZjGl3T47Whor74hjZlBoqGZ8tLjgOvhRt+gYoI/rCYiepqptOdKG1LXaYAri0xF0Bgatb7riEswX1R30RZFcbHIB+lc6mhdj+XyiGmlGpmlFEOYK/KH1SmRFm4JztxohXI5/k4M150FZx9JgzSCSw4sRPpw4E/LozEHVm2fGsLfKoGHDlTBxXa0FPVhZTssfP8i/ODLa5jjM5zvCRWbMiiXESaWdK9nR+E+M6DWwK5vyqC+29yfjDfXE55cIgG2YanlGHYgNWlxQfD1zYMakHWrkIcS743zxwjOZoXcEArpi+0K3FUOblQBlVYnsWwQalaaa2L8kP5BGwc0lBwKMwc97p/kYdlmAd4cuG9+3M13T2bR0D0AR2SNVt/4dd5ckOIozYli68Jw+PkJtM5lb1WHMbmwAH6aLga+p6vxek2vGv5b1WH1/U+nhtpcRgP+LzMCPqrsAJmVAP5fltfB87fPM7sm5HHgoYWJ8O/TGEPQIYEgmPhqmVekqntILPXnYZ5BivLB36GzCpPi1/UPG5eyKFjTwWBsUZOXCIRsN/BwdUG6Z/imoUdq1y+B3WFe7gA+Gx5cmGgmtRjuXG3tgf+ckVltz3dWJ8AysS8tJXMxKv4CrD5nWHLsPC+H7WcajIkIuRjwqBQ/CBwZfJ2XAhJ/Du6Y6FWp4V8nr0C/WmPWvqECPtydiuFKYgZvDJjD/IUnGvuQkkWG0RaNnoJX4UhKgEcw+nHbFFtrbcTtOK4ZbmZGKWGLbQ7uaatYNy8GfHlsi5wLz1db/W1eUiA8NY8eqWAS/1ydwMiScm2MEETebNrKKfZmg+yphUZ3nXhoH1DBgbIai2IliwNg9Rz8pZYl7MQmNGfRokCvCpaJ6Ys2IOtW4bpvQBIMpl6EYiN6e6JXYrsvygkf/cYFbZ1DYYKRyGBDejyIhN5mPx8Y0sA/jpcZt6XxIPHnwc7bbfBLi4Afx934buqYVs+Jii0I8aaxlFN4z6icxie3hu5BOC5rtOiqtMhgkIb5M1Iu4mCCtMzT13W9yJ2kIJ5HFV1ZtSo1uBIMcuYPatAhPok34jhWRaM9arUrR9CsjgsnCvtKsPgPZkkgJkhg8fjekiroGsTXLST58+DMD9JAwGYm3KvUn2cQdzHvifiesGmupdRkIMSd55pApcWWdJMYimm0ISEQTjyUCss/LrNsfJM/S2tawM2VBUsTzLe6186LgY4BFXQr8Nt8HCzcP50V2rEx6FSNZAfyPE5i3V8Q4iU712a7acjZ5gFcCQZJMFcNaysq8x4DPHe0SPv3C/J8zHysdiRNhaME8qMsIzoEogMFMF1Ief/0FePZGjx4uLLgv+uljJGLAXdECqDwKrZeRf78YuTvDFLKXfsvY97zsrKUsQU5EQLYe7cUHvwCX9o/e70ZogJ8IUwwJU25sFzgnvR4eP/UFeMJbXygCYx52EZub5e35ryyOBKTYCJ82FV0EAyMH0AVubmwMA8xI5dIlV1KMV3i2spoP0wXDepRnagfFQydeSkSnayC3AsTQoRwx5xoi+3oT89fg+beQdzfGqSHS08uhFQbtqOJQMBGL2N1OEHU1aM6ZPFvjxQwVNpxPCAJgm1LonDbz/DfZxeqoUuhgjHQ30xCLw48ujQF+GwPRstoG6bVh+TSHa/f5gR4yeky1TiGc4YQSTBa3RhtW8codvuqphvDDYTd2cISNGYvEnrDvQss/bqcvtYE11q7rRblS5q2o4kBu82aSRjcmcLDlflojPlLo2Db4ijcPlCqNbDnRLlxSWR6S8jnwIaFeGFQGBxjdkBRUx/S4C5RyLXiRpM4uSk0OuRbkCPgZGMfRgwk8m3PxVke4RAsjWCawNDJ8HXMy5KahXQ1pKbufii+Lsf9OUsP8MFdUpgXxKzkQqTNRqx2lGMnXv6yaLgr1rri9tClG6DTjZkNaX8+D9anxdvY1RR332gba9g42YQOH+ztSd/ytX94FKnoRRJM37AW4yr5yj8+J6QIlUdFh2KGnqAmho2ZEnBzdTErcpdiCD4+UwFj+jHcyv1maRT8YI79TgR3qkaQxQnkUltGlHdYP0dFF15fjhcuZRwdAyooKLXcQIkL9YeseGqhWmwCbRyDJi3Ut2F5hEBG18Q63dyPVPQyLsMG8DyQBHOth0yQMIxkk+0GjQZV08D1cIfHl6eCv+npaD1Aj1INhcXW/a2si/WH/GUxNrc9Gew614isoA+OfsZIPoh2KSBojEcHpAFeUPnDTKPOyhJThWruGYCDF6+bnVkypMz4cJgfHULnrHfMF3FalodrsV1bGg1fiRAWgTSspbBEoqtxPF1nyL4ejUS3ME5kFL1NL4+OjUHB2UpQqNGSgiG5u7DgH2uS7Frzf5e3GM8eYWHrQvzTzNkRAmAhKvNuOdI7KiMwkMwXG+da7a7rLd3Q2DW+fDC9tVQSBWFCbwZ5wf6kpcKZ/H4kT+BTASbBXOtWbbSV1SbTA5Jg5D7iudYBdDA3R38JKCIzIRxSY8IsdowOXbwOCjV+DCPD17fsqUxarV+JIP9ULWaRfD3dYMsC697hPrl3Dub1riEtfH6duvMqKkgL8YbdqxKsTsyj5TegW6GyuLMqNR68pu8sMSXQ0MIl+D9SaXXItd8jyUEFdBSsokuJPJaASTCFVe20+WaJEnD3o+419uOEO8WtE93LIzIEh8Ydc2MhKyHC4lXflFdDtZUdI8PXpPiJBcavsD3x9kX5hFsGy7puni8mRHZ5kmCIE3Aw23H7qTq71MMUz6WLoeC+FNxnlMMa+LCoDBo6+syK7MX2hA2L5gDnposHp2ESSq86jrOF7OvpTtyiFwfjqg5sYBKMziYN9y0CkuQW6MOD5IgQi8dr2rqhoqHdansdfCDVeNbG3tgra0feexzDehf5bAr2s+Udg3Ck1vp2PN3ITQqCj9YnWx2iJypqjBbJpre9uWxYv8CRB/zpIysNTecJqU57tA6Gcp2mJl0wD73Ga1NoMh3yFWAAQj4X1i2wPHhe3dIFX56bOESO016Gr21mGD2no8ngUtsgnGzqxWwzwwSNFXIJv+vRlFBkwLWt31y3uaxU8PCcEPjBnGDLRjcZo4NDw/Bx0SXj/02Vvv4+fFidlmjXzQH7g/n5hkkwo2NjtJhgZoSiT22ebx2wdONGawfZh7S8OJ7wUPZ8o2htOu66BlTw9YWrVtvoxA8yIFcSbPU5JvBuWTPy47BzRQKpdxmWUvclYPnABeMZp5ONvQzVAh8f3D3H6kHOXuUQHPhOZlHy6BB/WJlmLdaSDeOJbsLCGKIdSg1SP0KnkrddqXkO6zomwZS1Db5Ax4Rku7GQPmA0dAT5YoJDcJOljmZ5SiywXMz3UQaGhuFAaQXorbzwAWkw5EQKbW8HCtDqxqCgCnt5tDLaj5Ki+YWFEcg221vZRkOpqaFww1zc83AG9CmH4HSlZRiUmNAASBDhR5ykFzYO0mmEhWeLlB0uoI3gipsHMJ0KYRLMiYYe0kxp94akLVEDz9MDHsxJh/BAPzPRuntQBZ+eLjeap+Nlm5sUDHvvm0tHQ1LC04dk0KMewSzcG3eQk14msUjkC3kSbAdTb19qhu9a0JalTEIS4AVtW7JB5OWBu9ypqG+Bw+dlZjGpDClnbjxkxEcwsjHANPC8IqQE8TEcgFObR1c6sYkMk2DUxr1zK41j6/x1mn6g1qDL5yaAgG8eZmRIMwKFpy4ZdyjwsDRcAAUb59mthtPRpRqB98pbMKs2L4gPc204nrBlYSSyzbYcvUZrPciA7+EGXz803+pz9e09cOH6lMvSydKnxokhKdzKUhY5XOy7m+lMIGDJy4yEoNPrRRbPMqlQs73IN7EwKQrEQUKzn4zqxqDocjWM6nS4Lw/38YS319ohQgsO3i1Dx0B/cp5tJvOZIl9YIhZgVr9E3g9nmmyNs0UdyYF8+CIvFYJ4HridX9XUBh39ipuRCSbT/PgI4HPtvNNHB2nhvp9ZsmP0qADPA21i3j00QiFigZ3YBOdxwyBLjbW0dbl4oxHq27qtZvPVQ+mQZGdbl+n4G86xgB8TMKyzhp/gvGM8b8dhfUIgvLI0GucJPag1I/D5mTLonWaIx/b0gJXpUvq/WDMF1sgOA9gEQ0mcs2xTPB8jxsN1TgHiAyXA18tIMPpp/9W1dcKl6+hJa0jBPA+ofGYJSAMccTp6Cu9fboZ2JfYS7un5uM7JCCNXEgxJZoH2p9Kpxl6gyTKDMjZnRMA9CYFWu/zwdxXQN41kfPlcuG/ZfHBhsUgMHSJSAFPJsaBRgplWMb0euG5ozb1qRGcbgdm57dge7pCTmgjAMt8xausZgKPnZRM7RmgYJANpoGPJRa3VweOfV2C2Jc/NFf65Npm2vN66E3sZ2KHSwEvfOE4XM4l31iVDlsgXd0CphkfgTMUN0GhHzYairxcPMhLJOg+fgN35xNpEYZbAcOMi2Qq2G5q/1DiHsLCBURk7kQyX4wlrMueCjxfP7Ph7v1IFxy5Yd9Bu+KK/vDSW2UISwD5ZG7LR5gbzoVBG71ZyqJcntGJEe/xzcb2RcMN9qEWkpAP+XA+j0jf9nWKo6Zt0WWrZNh29A3D68nVYPt+cMJOiRDAyqoOyavIhdtGg4WAwRveO6MZiPFxdsINf2TyH8F+ATTBY6ykKdXfHOUmtHXO0oEwMLBYLVmQkg+/EjtEk+gaV8MXpi0YHRnj4aVYU7FrlHHHldp9H6z+K5X3GZC/8pbQedjq4XXzY7nD80QWw9L1SaBpAe+1rbOuGz0+ehxULU4DLnnIHkRIXAW5urnC+Ch24jhyY+WJqdWNpSIK5mSczXg+IL5EoSE+jOnSDcQzSDSNrU/rg4sKC3Nszwc/XeyoHPRi/XIeKy62Sy4IwX6chl08qW+FCSz9h/RnT2FVK55efOgxSVN0LORDpy8YdV/0KFZRdb7BouqRIEYQIfe245CEPjrsbflwyI5gpLIJg6Knd0Ch6GcSerp+hrVPoszdYMjcReBy22WNDwxr48tQF0IxgGalNQRLgBfvz0mxuQ7rwyrd454Gm1cMWuw0SqVDWascWQMOVxYK311nXP9XI26ChtdOstQyfmKy5iRAe4s8Mw9BgqoE4IjYOhsnNigRjW+MMYrrdHAefRp+gtGBa8SVRIogWBVvUyiAOG75meOQWLeBA5eZsEDtQx2CKQlkb1PQSiQFkXxTinOS2N1bGBMCBB60b4p0qq4KOnn6z75Jh2bQsVQrePOKHQ6mDHsnC/H00ZYUBxDY1DQkAeobQW9Eibza+12vGExpJUWJIl8ZbuFWsrG2C2mbrk2LvhlSnis+1s7iO0faiisKqNqhEmJg7AnfFB8Hba5OtSl5HS8pgQDlk4VRs0bwJT4ROsvNJHMzNJ5wlku1lHsXxRu/l7lbq2DGOnYmPFxcykuMsnmzv7oMLshtWC3ji8SxYIGI2HhAZjI6NQWlzHw1jiKhVJ7kOfeFr2sIk04IfpYdDRqiP1edOXaywqI3Ahw+3LzQ9X4ZRZ5uXljOBsKaAs01tj9ITzYNF7nGK4HHZkDUvycIQrLOnH749d9k8fwwRZe/GVMiJ8mO2kCTxt9J65L1Mka/dlnEl8j6M+Ep6+LauGy609kN6qP394aBQkJcGa/97Hqq6lMhnDBLMoZPfQc6CucBlTx0fCBAKYFGqBIrLkI4EbIQe90/yr6P6AmIyOibBJPh5wfVuJZX3MQTmyY7H4cCqxenAmfDrMom+AQWc+O4yjE5XWE8r0k8zo+CBOWGMl5Ms/lxci9l+cX48KPnhEruV41RDD2S/hxngE148XAUnn1xkt7JYQ6QvF648mw3L3jsLxThnpwaVKjhzsQLuWJRuNj9EIYGwmOUCZy9VEMyRucmF9+bhUZ0NW5zmY8oHoVPFXCItCJtu4UjCunaGiXCTyFk4F9gGcjEper9CCV+d+g60o1rcSmZHCmHXnfRZwdKF/BPXoW0Q223EQ3Ymw2WRfpBodPxkWZhTjT12LQsRuLoA/PtuK+409AC9/QqovFFvMTVCg/xBEhtJfvlJ09JzEqGYYVzG8V1zP9IZFVmkhWAvKzEJJkrIRYacNAd+RVsVamTEN2PFad32pNYXnu7usHxhKnh7eRlfM6nQHRrWwJmL1mMYbZSGwLdPooPDOwryATW8WlSNWWmRNxt+k0PN54st+HhjGrIfHii8aPfyWEOCv5dxN3Dc+Rb6i1l1owFKLlVaVEsSFwWiYEw/TGjQwjFT82JesDe22DixbCVruoFKGWG+mLY2mARDl8B2oRUd8S1DJKBZu0etN6Tx0RAU4GcyfMbDuxaVlsHAoNLqKz7ckMZ89DoK+E9Zk9FZEhaeTBPj20YwhNQQH1gRgx3idV9FK1zD0Xk4CtJAPryz3jRCAfZAaG7vhOt1TRZ3FqYmjx+MJCBtMAGuuysyONWwNYfgJKYS190VU+mE4/TbdmM1DY6hnTGynINhWCvHRolgDPQmCaD44hXoH1TgtqjI2xMqf5xjaTDoJPiqGh2P6LF59JyapoKNEnT0xPfLmxxWLjysjguE1+9IsjrJaurlMKBQWQjWty3JMOr2sEGLyGIlOQ6YBBMtoGgwRLJuxqNKTFmKWmnsiLBgyJqfYvGzC5evgrwNP1hYvL8XFP9oGUgDvam1E8PYe6UZSuW9mO3y/r2pEC3Ed4LNJJ7KiIQoxPj645kaaOhzPoNAA/5vaSzszU3Dncjq4WE4dqrUOH5M7WO8vHiwLHM+8Hlc+/CJSUryxzvBT08mXHe0nIJ5515JKDKeNFmUNPVuQ91jdGsS2R56o8VlRmqyxS2DmFvX2GyVsE5tWuI0VrpYeAihzwjls+HRVMdJLzAx4H67PBGzb/RjANu+dbwrBxQemBMG9yaFWH3ufFmFUQI2HT5sNhsWzk+xuxSSHMhHnkNq6lfn0CEYZeCE3MEkGL6n20m6DKuO1qADoIf7cgqZaFRrmJucaJGTvLUDSs5fRv9o4sGC+zMgyAutmXc0/lqCPtl7fzLxQGpM4pF5Iojzw3ZI9UG53Kigdla8uTYZUoK8rQ7Pi+UyGFIPm9WOy+VChJhqH9BPTPsqW3JseufEn4FcDySJMXqaGvQ22PHYkilOSoyLggB/oRl3KlVq+O7iFaul+c3yBMhNdj5bF1P8+2Ijctn4eBp+IHt7YuuiGOS9D8qcUxdjQJg3By5vzhl3e4qzm6lQqKDkfLnFCJwjxZbemPqmxuPEhBoi7ZNpEsQLjUMw1JnRFOeb+5B77Usj/OQMcAgysT09ICY6wmx9PKwZgeJzl6z+eGmEEF7Otv/WLhl8Vd0BV9oHMe+tTQiClGDrJvD2goGob+rgprX1+zhOyZ0FH2xIBXfMrbipeiiVSmhobDY7z6YHFixIn4v/RabRVGNusA+mdNGuHM6ki9zwYmghCSbJqu9YYrP6q2p0IP1gL89Su1E5AESEi8DN3X0qFz1AbUOT8WuDVw1JAB9O/XAZeOJ46HMGvHH6BvLeW3c5LgYTFvy4HnCfZEKfMa29b/Qo4VS9/eNZk0F6mACOPr4IvDzwdxGvXq+xGFL+Af4gFDKhfzTPCcffG5xu6BFTIzfL/soUC8kvkZIDvQtJSwkkEYW7m0G/CGMgGNO2MqyRq29gnTSeQmIAHw4/7nyGdNNR0tQLJ+u6MHVmP5gngnBfe7gSIIeH56IVzruK6fISxxxyovzhvXtTcSfk6KgWyssrLG6Fi20LD0MEzy6ILEDdQ9lIWYflvGLhTH4kwXi44hkHkRHvAJoHsC1608ME5EmMIrnNm5sMnmy22U9q6uqNRnWoRjSssy9uXu7UO0aTyD8+LQ62SUW3Lna8P2As3J0UAgssHG+Pp8+vthqW144uolVsTA6DX2XHIwP/G6rT2toOvX39ZjUMDgkCdzc35sw09HqDlIi0NTta00XbMYF5IT7INS2SYFbFB9FkaauHkqYe5KcqK1xAD7PgPOLh7gEiUZhFHzTU47uk2ffAAuBaiWnsDLjRrZzYrbOsRLw/D+aFOM9J5enYd/8CZPtvm06aTorfrZBA/m34QfLrDB8zs/8AgoKZjXmNpxtRaLS02ZrF+XmVovJBEgzbDdv0lwp6h0aQ8uDKuCCC555QsE5CQj+BhXOguvpG0OvHkL/52dI4mONESlE8vH8J7cz7sVTn2TnCQqSAC7dHY5/X+bq6A660Ddi9TFTwf8sSpp1ZMk9dnV2gVKrMFL6BRoKxUTTHwab0SIzY0+M43dBjuwSjHw/JiwckwcQIeTSIaeOFOF7biYziONcOkzggYOr8y2S3VcnQX8d4fy/405o5jJeLLuy50IAcn0+lU4zfY0c8vQAdz/rfF53DObg1uLoA/CQrBpcr5PJms0tCPz8CHEJNsvdhu+GeKUQF3yOLlbEBuA7FkfSTFiYg4IncGsZbrw3nVPW90rDtoNfbKMXgw1cgMItn1NXROV40RA88swAvtKhzYX9lM7Qr0SE3gl47SPHNdjwNiZPVOxcaYNvtSSDgeNivPBTxYIoIfnEYfQK/qb4J4hJNTB30AOFREdBUT3843ZUxgcj5e6KuKxfTQI1Cl3u44u+s4t7149LTqWca0DoYIFBIW8H14pqtfjs7u8Z7FyF5/WSRcypFsfDEfqbcHNiiFyMp7uP8ZGhEB68V4UVEcB6IfDjwy+x43Ar19fSaCfj+AQGMLI+Sg9Dn5LpRYZspdOmKmEBcXS3uzF4eHVBIRemDlW50K5BSzJqE4BI6GhUL/gH+FsVUDKIdTS+PDgBXR/gyoID3LjaA0qiso3VsMghqxPTn09XQ1O+chyCn40cZkbj9oFAozW77CPH8N1Mn87nB3kgJ5mhNRy5dHwcfT3dcXS0uwUgDvcmZVOKU77umHqQe5o6YAJPtats02tMTh8e1UPD29/UiG3FpFLa/EmfEGycnv+wYdWFw+xNLz8Y0ue25gPYt7EyIFPCM7h1Q/dDf22cRreKmLobGdFdS6P9QZTzf3Iv82KOBndGahCCkQyuwSjBB3hiWttRw6Fo7kmAifHlIpziEgWhoX4HA7HZvTw9Ox+gh2UldMEzHvityuNblDCE/mCA3y1e+d5F+PQVTSMSxgh9Sqiyq52L0KWQrq0zBIIW7sAB50Ohy26CYhmyM4OA4tAJrBJMWJsCQYKiVTNY5gGTNdZJQK6eqqX8m9TBxBmQi9XX34j6/PIZZ2wS68MrRSkbayzlgWX55/xB8cwN9Mt+ZsCgCHVlCpVQw1DNTb7w/JQy5aXK5rX+jTURm8iG4IzrAqq0c7iZ2jJ9XKV0tUNE2gFT0sgDg+UWxRX8vrskh/kZiBXNxcTF7Uo/7Wxb485zXFcMkvrrWZjSuw4Knmwsx40BcNZNjdVADw1rACqn1VmktrIgLckSRSIHn4QqYuzRGsCxusVj0bnI8vSAaaf/yWVUr8mwgWSyO9LO604xvJQMAP1wQVfDOubo8clljD9C3Smq2PZcVi1n5FbHBu/9+lgzBEAObx5uiEyuchHc4zJnwXxzXkkU/yoHMcOeKzUQWLx66DDvPVFtc/7yqBWQdAyANcm4DyCzc9teDTqcDF9epjwCby8UhJHJYIBbi6k3/c6Ex32we2DDmH5ortk2CMSBCwKNg0YvdWGcauiTPZWFvAa+XhO6PFHDlDX0qWl2uuXt6mn0N9ThyqQRna083pgedySAY0Zk7TNaa/D2q05sdJhsdm/rb8H/DuyY71vSe8b2j6Pca8m8ZUMPH5dj6iEdSI2Y8uRjw82UJsPO0JcEYcO+HxfBh3gJwc5n66ru6sCYca4/Dw23q34Z/uZuYQRieM90ldJv2W3cXF5j8k8VimZ0xMvzTNF+UeYU1mx2VUgU876mxZhijdGFjchhSqrjQ3JfZ2K8yv0iR16IEvK54f/5+a89ZJZitSxOKfn0YJ4AUCQbcW96U9/GDWfej7meIhKV0E4xh8poOAz3OyreivR9YL+0j8FYnFHVYAL9cnuToUtCCYD4bcueIoLDCUn9oWBpmvvWtQ8pFGFaGh+uEy5BJ6MfGMMYktTEWKeAhzwWVt/WvovRSDKSLBITc6lpd/HHcXU9GCDjoU4EkdwiOVrcjz0DcmxxWQpd2exLKAXPfqPTABiUZrWkKK2ODQDJDdsCI4KdL4hhvM8ZgpQgeHLaZ4adKocB4jtoO3Mo49LbxF1Utq+hqr8URfoS29QhplxaI/ZCsSBYHr7YgCeaBeRG76NBum253joyMmD0ZECZyqrFoG6YKu3kGWR8TwaIIf1gWFcBAXziWtPgCocUwHR3R0lKzFxbHFfmw3ZHbxgevtmWRrx62vdm8EJ9zRMpEiGBWxgfjGtOQwZmGbuR2Nctoe+NDY0A2PQz0dJu1lyeXC3wBtg8SYqRlgwEaQx/aOcE+sF7i3L6CqeDVlSbheJngBdr6gvjLBEGBFleH1SpaCvfAXPFuVAn3ljcho3uQwkS22dHos06mIEQwWRH+R+iy/Cxr6RU39qmyUXn9PDuRhkOWU+jr6rIoRnRyCp1ZIGDjqCZBYHsfQtowzmgYJJi/3DXPnkyBDZqy5/n4QGBE5M1LYwCg6O+HoUFsP8pkCicJ5Msyw/2QStd/fldrWwQBExgkJaKlI0Qw0iCfqmA+2nkNKegB/lR09TnU7cfSo7b7cdxpITND0qhU0NfVaRa9kc33gpSl2eDBZts28BwIFuhhy9J4qP+/dU6/bWsLXlgSD2UvrISlUSRjPGPCUSKQHvh+/hCblmHuAFwP0HS1ipYs7pGGHUHVelirE52q68KOgUShzTYkhyElpekgbOGzdVlCPl1fiN3FN/L6cJxQPTo/aifhlxGAvPq6BfewvbxAkrUIgiIm/KXQRGjIRONXNTdFDGNvPAA770qFSAdGabQX5oUK4NQzt4Hq1Q12X37aCg7fGyJT5kFsega4mDqcB4CO+joYGuinhcAeTYtESv57LzehnUuRzMrFeF4vwOr29CSsblNP4uc5ku2/OFhuaYLMml5aYjh2oz0rd244ZqM8OC+idNdpVIQ/8tt3qv5+uFpaAomZ5ksJdzYHwiVSYzJANzpq9NFryIFlYu8ALJb53wxhZHgYuuVN0HoD2wZkEi0DM+NkMd0409A18S/0OHNxcYWgmBgIjIw2M2azBXijWq+bOvJjGDuTPp5dXd0ATOxrpu9gDisV0FJNTxTLTLGfLCGAj9yI+epaaxZdzLohWUxKhUFq1uREB1oqeymS7snaTiSrZoT7FUb48hAxk4hIBZZJ0dsNNZcuWNwxPWXNcnMzfmVYbu4ALq5TieXCiFAz/VStmycbgmPjQbIkG3dyFDc4d0gPplDXi308YhJsnhckLs2GoOg4YLm4km5/VMIVTE3GCcvVDVzc3I1Jz2IhR6NGrYYmWQVtmwMLw/2QyyOtbkz0aUUzbQ6+F0f6k9rwIUUwwd7sZrpkz32XG3ErnZsSbn1rnGRH9LW1wbWS4okvDTZH0SGBE02o6njy+RAYhe9Vr6pjZviqpRPf1nQi77FYLEhYkm2USqm0v736XK1UwNVT38JQPypiAvm3rpeEIufK57KWLJLfYtyGyokJIOX5gBTBPIKzzhsH8VJ3q4bhZG0HkmTukoZROGGNmrpTUPb2wJXj30Br9XXjl2S6rxhb+2L6+ywSwS+lfzjaT60hvXoM7ZrxVsWhqhakKOEdGGS97XH6ggmJ1DSp+vug6UoZVJ89RWubLAz3k90WG4Sclx9eqt9i86ieqGCUgCufG0LOlS5hHYwBayWiQivzFxsItcl/ztflZsdgN86y6MBCsS/XeEyfPPALqdUMQ1vNdWPyE4WDp5cX+IdH0bZmJ1YKfLh6eAKH7wPqQWxJ5ZOyRvjggSyzcza3Mg5fa8WNpewl9LdocFva31YY8h5RKWGgrRV6mupBp51mTIdUJZLTMf5hzdzNePe/rGqlzYZhSWQAaYNbUgRjwO1xQSXHb6CdR2EC0dOHr7Xm6sb0SBeVf707Pfe+/5yizy4GI5ue5vGTya3XaIvSQhmS21aBm8nBt4CoGGi6jOVzd7wib56phq3Z+PF4bhUcud6GSxlsH18wPSaq7O6ExovfTfzlhGfHkFUhTotpYQJ5TkzgSdT93x2v3GahXZ4OEkT3WLq1FYwlSH/+nloYS9uEb1eo4cl9JcjThffOEe9fFh1QQtsKmAaFGgOrtpvo72gzE6u9Q8KMOgVLjL/0zTP07EI4O0bHxuDjskZk27L5PuDJ9zHr2oH2NpNniJoMOKjjKeL3q1N2oe71qUdEvzlcYT1aB7Lo5m0WLeTB7bHBpOc+aQnmgdTIXQ9+dIY2O5UPLtTlvf/gIuQJ6+eXJOw6VYeOq2QbmBgA6BCi1qDs7gaBONLsGsdHAFq1GvP5hj4VeL6018zdwMyD9bIbCGYUywPVBLwCgyyaV9mFVgjT3u24VWBujK1ODEUSzMGqlk105vyDtEhKoYVIE4wBT2REF7x3rpakEyo03i29seWpzDjMxsqdG1E4J7hCVtHWb+mJyynnFfVuVXS2GdfqLm7uN6/5hIpgsL0FmdXIKFov4SyxjZiGT6jYaKE9CWVHO4xqsEkZHxQrYXdljx4+eDALd8LvOnVtE50FeyiV/PIIqCyRDHj3frTEQQUfXqjbhHf/J0sTsHeUbFL7212itQr92Bh0N9SaFccrMBhcPajGp7KjuO+glYVveCS4GZaRJr9VdlP13TszlkiSIG/ZD+ZHId1iHr/Rnl3W0kfdsfe0dLdUJIsP4FNSUlIiGBeW8XySnK5GPFXXKS1t7NqIuv9UZtz2RLIhVKwC0ZpMWNQRJTgA6K6tNkoxpv5CQuak0lt1ymBiAhLtB+zHhNEJZlvPI2o1DMibnIgX6G+bTQti9uDl+MLnF3fTWYk7YoNw88MD5T3OzUvid03V2fYJt+ZfxwsHhtHnk965P+tZR30xmAFiUhmkmLpqM2Uv1z8IhFGx9iM6p2xGy0IGSOaAi4eH2RDsbahhiOCcY3MgQyyUbc1OQupedp68ukXWMalOsL0AQV6eRj0o1V6jTDA/zIxHmidTQf/QCOy9WI9cKi2JCjyUHR1UZL1N6N4xsD+Une0WpfCLlwBHyIS/XSoTjJp0Rie8xZHgLYo0y3JMr4eBJnsEaLMDkyCy+uihxbh2L9/eaN9E55DevDjeprjxlAnGzdWl6he3SQvobNDdZ67j6mLe2rhwcwDZsCI29z2N0gLBTEeUg6Boa7b4eVjGEhDGJYEbh0uuDewOuglrKrF9hRCYMh/8k1LGSeWmVe4YtF4smaHSGRAaF3fEBZXEB3gj7V4uyHs2HrraIrX6LoIfB5EPV/7KijlIXQ8RsCZPf1KFy5b3bXyDOY4+s+LeFQmhn6PuP/ThqYK9l+oRRwyccluJEgyif2TOauQpbnVvF6h7e0DR0gSjw9atnU88txJyYoMZKCl15L1/CgovW3ft6unjCxz/IPAOjzJaOGORxEBDDfRW0+gMEQnEGLPD0Dv/0zV56WJ0LCKfl/fpBzX0uN8E4w5ueGHBo8ts2i222c78+aWJhXRKis/tL/1sWKtD6mJ+ecccHBscJkRX6hKZLRgbGQF58QnQDluelzIkT2EA+MYmgjh7JQjirX+0MiPocNhkX7BcXSFg7gIIXpgNPjGJwHIfD0EzvS00SgX019+wU6moSAW2p8wI/xI8cnnzzLUtdJKLAc8sirfZqNZmgsmJCaZ4KBEbYT7cotoeBdI9/pwQQekj86NlzscT9BdGqxyEtgtnYbi/F3f8+UTGATcoFLd0bCLRHu0NK5MqIDUTOEEhuK2k7umEtnOnYEyrYZz0HYm3Ny58De++H9fTmx4yG2+6DLEf3EbBcnc6bCaY++ZGFEooOeo2HwxJQd6yt3IXbi16fvVyabAv7p779jXznmKMRZxMCNIqFdBWehJ6r1XAyJAS+VN+eDTuy6+295PvIgfCw0cAngJ/5DwYUQxCb1U5dF4oBr1Wi6g28/oyBr5UFtg4N7wgJVRwEO+Zh9Kitnf8Nlf6rM1Sx3j5d6xPo8WHjM06GAMut/RunPfGAUoViw/0ht/embr1/tQoUlthh6+2bFzz9je0Ogi3D2xbrHsK/IzSioe3L3ianCA2/E9+5DPk736/NhVeXmEPZ+fEkfefIqQOhhMsAr+UDLNr6vYWGBnsh+HuDqN0d8vCZIiE+/LkDb/ZEE5m1DT0KiV/O31t066TV7dSyX5lQkjJkafvWETlt9NBy1n/uWHC/bnzIkgvlfY+lp13/Vf3sciSiwGrk8L2r0oItb5UcjrY9mXU9HVD37Ur0HH+zE2JFisu4HRMD3XrDDhbjz4v5CkMMKv5qHYEeq6cA0VDNWiVA8yLjo6ESdHe2rjwRbKfpEihV9XOu9NfHP3zI6wV8cEystLZL29Ppmz3Mh20ORP5aY6U8AHIu5LFsqsv35f1QFqUTRLIG+vTrS+VbFyLOu241Y9ZOMniitBOqnafvspwgchBN6aH1gE1su1Yru5mxoaa3h4G+4JOsqKvYPenRhYYfTBRhKsLC44+syL5b/dlbBVyPQhVN5jPgRwadC+ToI1gFkUFliZZ0cW4sFhw5NmVeQd+eEdyYpCPzdEiU8KEpW9u/H/2zgSsiWv9/2/YdwiyQwBRtgQVUJRFAXEBRb1WHbrZqtXbRW1rsf311nqb2OX2/nuvaO21vfaWttpalVhxF6xKcAFkFcggu0BYZEcE2QL8n0SpIMlkm0kmkM/zzONjmOWcmTPfec8573nfQIUcgcSDQ+MhWLT4fb1jTq+tLz61TEt3H9S0dxNzq+TgDLcGs6LaJqZj9n+cv1kBlKcLuBTM09q05/irobis+Xt7gfe+1i9eoDzvK3nB4qaAabgOO+AaDu0lfzeRCdqsjfUh7rmA2MH9GylLvcRn/38WtKGd/vcLuQlY+2xf4L1nna/rKVwqQDj4ilZf29islboWUzCtsoQ8ZXi5Sgen7L74P2ppgbaxqdAzd2TrbW0kl6VB8OV2LZn5Mdb9y6ttXbePg74nyz0/viE0pmTXasaLfq4iYyxpUQC2zveUa9xGHLgKzLvhjHGLokLcbDOyP1jFeC9ctn7dJxdyE3y+TEQ/T76DfJqUh5n2khnl+3f8ZwzIT39H65gS602xwdw/s7pZaWWTxLHcSrG3XN9KxNQ0H18fD9lRgmg9gWFnjr4aMA3zfQn++hI79nR2nNWu48NZNS1Sz/h4WJsV/fZqaHDCxrCYZ4vz2TJflpOFsUxBvSWhzWLh18PQ19Funm5lCokFVeFLPB3RT5b5/vPA2sAt5oZ6Urdsdt495K2EtB9+yaqIHPntVmVT+IZ50+PNDfVETh3YmBo2V7Z0Mgrq28fHjFEnZI3TSgEwdHQd00743Q9hUMwMS9H9DkB8XQX3C7ciy8MXl/PhPCp+cbyBo8tja2wUXaVcGB7ol/IKOLjVqsgpXGBFnN4csZ1GNRbrqvHBmayE6xWNwrbeM8CHHzPKkCEAMztTw1orEwOp3jWGnUXR+jlubB0trb6CurYgZ6oxj71p4Wo86wJ4TVM/S3ZNS+AcZyuZxlhO5FYi/7icv7egvo0m6u8z7Km8go/WOGOdY/F/LnGvltZjiMzEWUowwpQFUaBl9DS740BbM3RkiY9c72xpArdjV4KdmWpEJqOqCYL2XcDcx3Lhyse5qZ7Q31QPD/MVHrJTEoq1Me5HqxlYfmBHssqZG47eFGsVbJw7nf3xkpms6dZmMsVvqW7rCnSxNMH9JhMSkl5WcQn41xnuCz+lJBTUtYkNklNY307b/NuNFKzzXNm+zMfb1gJjoFl5Zq6yeFRXNaa3p0O1Bi2Mwd6ati74703VzSj95zr2tXWt7MaIi+AO99SUK6FkeCF/W/pw8Qw2lrh09/PpG369ycI6zc+3yxH3z0+h394sxhxWeBYixAXw7iLJQm1HtxPrYi4z+r+Xk+s6ukUMHoz/EuTVtrrOn2Zb5GYlXp0F3SVBNwv3AsuDEgwmfnsrGLp5j0lTqku1gr66KrHH3KxoBB8HKnjbWRBfwFGwLuXBN9cxPqzaOmAyc55wzdGfXb7Odugtx2ERo8hnQR6LdjZtCnpgbeArJvq6Yj0I1x9JPVh0X0ToWBFcLKoNZ9+pQoYB9Oe6yJ5uBC8I6SJJglPWEPb6sRucsmbZvTHpdhYo+vE6H6x9vrt5l7n1xK1nlJM8jUkhRFTDZGYg6NmNXR/68E4aDDTVY56K+9EaYNhT8S6hSA6kovDu77cx99Fzng5GnrPG/NZTkg99ZLRgcMprJMDL1hy9u2sNZpvOrG5G5sWdx5xRFUeklyOa9NZSzPMThVKzdqEN7fSV/01OW/j1BU5ZU6dcvRCBgn+Tij0999Z87z2I37NOfER0j1TQlRJx6p7qsnGZBPXsXSQWKerbZOApwTeG29AOu8/nYBeGQgF9F/exvw4NQf99nCOl4oXYqsg+i7n/ubmYMVcEz/PlI6l7JXviiia5uI5h+bejw//vSuFeIm4FFkqxYHJqWgK3nrh5ILO6OQCvcx6MCWFtDaVjPpjAf5/h3q5qxm9micRGkLH/AtCxGhvvpY9XAb13c5/Zc2wlrE0M4PD6UFjGEDm2rhCDQ8Pw0uEUSMiV7H9jHLQUtEzGLqLvKcgAfqOYWVOlPgtiLmairwvX312O+DlNOSlun54BvtO8veeSCnGcIX0/wifu40jffRaGerhOSYtCKRZMzI9XEvAUFwGsizmsuo5usXFjBPz4cmiMk4URDzdLg8SGTR+vfNxHVM9pGmibW2JWormrRygC8ekl+BXmCR+dzZJKXHRsHMeJy9CjLvHiAsp+DsRc7AX/qWwscYEnbht4iouAf1/jxsZd48rkpCcvShGYSC+nDLxfsOauXnj92I0ErFPQ7alFqTtWxDhZGMtgZxOhIhgbTuuh+E0N0M+7N+4wg5lBQNE3xDy241E/bPntBjC+OAnf3yqGAQUWRhbdb4d/XSkAh49/g39dLZBYcC2qNej7BIwLItWDZilXrZX62IdhzUyX9P+9OB8zWlxCbiVz46/X44goxJpZLkqJRKCULtLA4BBd/50fUPyvRIEwd3sOZ8eKhVh7/ZZdznz55xTVTJcpGaPgSNAyMR/z22B7C/RkXXvyP8nmPtVQD3ZEzIDdUb5SZ42s6+iGnaduw4ncyqc/SjiUYmoBhvOWjPt9oKYUBkrzpbou8eDfPbIxNYCyTxCGmYGe2Cm1grq2gFn/TMzE7aKjqvFuGIO9f20gbokTMS+rrFmkL5Pz9u46m4XrOocR/vmXuXEfLvXdibUP60IOc8/FHBxFRnWxWbEQWAQGc8br7WBzPfShmQBSe8M+ZrGno9Apb6GHA5jq6475W1VbF2RVNwOvvUvoQCeZpzdHYFXpz40AisHYAObDA33Ql/4HDMuVmVHkpUiFwJq++vbyKA8bc0xHuND952tuVDTiPzAGADWfvkCjUfFdEiAOpU5Th+8/l5Ja1hBOxLm5uxEGw56K+dDwFxkikV/AhN0OESIz1NkOfbf/wKFsikExMgG9WSFAecbSGh7kw0DeDRhql3fNlJJVRY7LcXetldxOL+Yw91zKI6SdXt627LklXo5ig+rjjVKnqQ8+H7LNQEeLkPCFyA9/JPUO8OlY12dFz97zTriPXL4EykeeMZvH21BbEwyUF446ahgEHxJBl0QvKFL4r1xjPzigZeMkLAMYmwnLNHob4GYqIC4Y94yoTYbxMkdzI5404vKP5DvMPRfzML115X0WiN/UU8oUF1C2J6+NqWGznZlh57nC6ki8z93S1Wt+6s698FUzXc+KWxQpYBmDdnJoeIhxvaxBupF5hT+KqrHVBS/qMJ8PFKq10Mfkz3appw/aTtOE+wx3PQAYwkqejyOGxqBNnwPabgwYHlUe4dbbAwNZV2H4T3ERcc9I2uWRBg8bc+C8G+3jbmNegbUfO7cSeevEzYOyX0HyzaHbWaDHN0Wsx/IUJgKVePKuPpSccib/npiukmItyceBihbujpHotXitpD5s0dfnOApdDA8IFjCKsRnoBEeJ/uPwMPBzU2G4TZrxE/nRcmMIN7FlyEgG6FZmu1eegE23NoMy5vMSz84pqw9b+PUFwtpj3/7XwvV0tMUmbSMKpXaRRjj9RuTCmY6WYqaOFTNbufVtjKUHznMf9fMxfWQiPB1S49YGxeFq/8sDDlOeWJvASuEXpD3phjxr1VNA2z8ctGYEAcXSVo6LY0Nxmg7aIdFAEVgtIo4eaq4D/q0LShYXkLvrKesm6BYlb1s2fprsGX6/cw8hUlx2R/nFqUJcQJWLHa2MDczYuZX4DPg+832obOm0GRgcclvi7XQC67AgN9vLte1dSB6vBTtSE14FUxVdnTDUUP1YRPTGr7SmmJgDxd4VtFy9AXp7AB4qkOKEAkCZ5gNasxcCxcoeQFdPTJkewFDONYBxgaRIcs9wIG3nX4I9bS2wF2ABwJrv/zjd2tUrZ+Jx7MmAaVZmcPr1pbhkCJAHlQkMw8EytaSxnSGwOGQ/WnIjTKu47yX4N9zDAVO5V810/VbwAUstrSdE7EgDfwCGG2sABgcBzKgAWtpjjBDhd5yiBWDtCBQ3n8fiYGEFoK0NYGT2WCgG+oXBxoXo6AFQbQBMqQDmUwBc6UDx8geKuy+ABYZe9z6C4ZI8GL6bTWx9VTh25mRhzEt7f3Wwj4Ml5oBuUUM74vvl72hV60M5xUUyZ9+MjHG2NJEpNgyeqGQMZoSuvgH6lPd/RPv5xKXUYEbPYbFWBEhM4M06n8Xcc4GkU9h4i5axGYDXHKBQsQ033FtGSz2A0BenD+8zKwcpnoOOlhbc2bVO4mwRf3CITv+MjZY1P8CxgGNhRc9mMZfPVih5vaKozIIRoKej3bzG1419IqdiW08/X/yOCrxgqWX14Qx7yyKGhK9JuIdjqq42BUobO6Z19vaby39FPCDYDOrvA6i/B9D94LElYmRC3LX6egBaGwCKMgGqiwGGMJ6z3JDDbFzq7VR9+e3oEElOdINDw7ov/XT1mxvlUs5kikJClRE/N/bB5+dvl/v8OKFSC2aEU3kVyNpDyQT4pzx9CswV0lkyvPYup+CvTqXVtnfTnjnFxEXPEMCOBmBhDWCLGZVUOvgDj0WlpeGxkOEFKZ8FRVgsxN+NfWLLEonu9+VND5Doby8dK216QFiycH+aFZr2weoofR1tpXjrYkEKgRHwY9pd5uYjxK4XEnaXVmLH3gBh37iNHvJVItrRI8qUV9+A0lLj7PlEbGTwVBe0o5oSgNb7j8XlT0hcWZyKdvKvS1lr/dyk6oq47j46XN32kLCC0e2oKPqJZDcNZUEagRGw4eerCUcySggNd/lhpB+bGR0Qa6ing6nuPQN8+muHr7GOZ5eTI/zmOJQkdNo6jwdztcV8cAcGADqaABRNjKYU8BU7MwNd+OGV8BjEX3KysvOF1ciHiRnMogYxoRdwKlrqe6tiQt0dSJOznVQCI4DBOjZc1NAm20Eyhi+MpNPQpHdWSqXy/0kpZL594gY5B39xZxJYZzhBt7dEs/62dpuRno5E/xJOaX1YxL6zHKLftJT3VoVLmjVVNipxtMPi3PZohhNVlvgtsjuhJaM1jBl7jnF57V2YzngCti+csef0m8tiplmbybhOSh3Be32OLBsOl1cSS71p6B/vrIiSRlzYORXIwn1nOMO4VFB8hT9ZPptNNnEBMlowAorq2+iMPcdwCCWPjbc9Fc39OCbGQFdHKj+BRXGnuddK6pSf3I3kEfHVA3yss8Q3o7avnjVVqvVCv94uZb7y81XCrd8wdweUE/sX0oy7jIZ0FowAuoNl0X9eXBCLv+KP3e42tDH8v0hIQuvbMFdhj3A1drXPuxEzld+/lWOJAG6bxjoTbjSqMSRsWRojrbiwzmcxX/npCoto68zdxhx+2bRIzGIz1UNKC2aEz85nMT+/mMUi0hFvhAMvhMa+HTFTqvzZ3LpW+ptHOT/cqmgIwrcUGqtELDimCZEFE31d2LFoZtxnq+ZhBjQbQfCx+uRc5oFTeZWLCC0YAIS6O/DObV0eZWYoPjKeqiG1wAj44kIWc/eZjCdmJrGNKczDkZPy/nMLpb3KJW41c/mBc7KbwErTEY1gYSKh60m3p6Kc2NXbrE0NpRrbEIiLz6fHCe/aj9C5/68MUwNd0ooLqNqTVxpCPRxTB4eG9a6X1S8g+lrVrZ2uqSX1m5fSaWxTA/ExZUZwt7FIXe07NbmyuTOosqWToAWTODMB0n0QjYO5cef7S3y/PLJp8U5zQ71CaY5JzKtE1n2fxHnU9+ziTTEoMK4mXOv0f2uDnaiqW2MkLaS3YEbYlZiW8OXFHPE+KTi2Zbq9Jfrty+HbwjwcpR6VP5lTjiCHLingjayeL+M41FzAfBws0eN/jYyRtLRkNM99d5F7+s49pQ3+c5kvMmQpnyohvQUzwiJvmnBwNbW0VopVz4o1vOaHPTY/p93dqKutZRbq4XhZmmPoDpZF6+d5Jnc86jcvqG1R/kyTQmjEzcnChPevdSH74l+NeN7G1FCquJ2CLtGGn66cOV9Y7S//laVHaLl8uC5YXcQF1MmCGWHfH3l7YxNuEJKdQBQCa+abl8L2RHjRpJ49yue1BH55KTv2RFYZ8V7Aaq8Nqq2As6UJ791FvvFvhfvEG+pie3eP5oOTt3799+W8l//8geBqOFqY8NI+XBvsbGmq8vVFsqB2AiOAdTaDuedcplJNr0VeNM6Vnc9h5l96lpq2h/RX4y8fTC2twzGTAvkj55OP8ZXQogB8uSaY9X+R/jKFM+DWtdLnfJGA9vGVFMt45Lqsl9SmWzQatRQYGBGZs7cVEBmMN0fMn2Y4TuEdf31ZDN3BMkOWK6WW1iE7E27szaluIiTPjfKYGOL2eiiDvTs6IJZGlc0aOJx+970th6/F8WVad6VYJZyoJrykd1dFqaO4gDoLjICPT6Ul/ONiltIXIybtWM2K9HGROZDPtykFzN2n01ntj9Q04BIhKE+0ljKc0aNblm6zMpFu2nmEpoeP6DGHknC2RKWDy3pZLS2XEdRaYAR8fj6T+em52yxF8inLwyyaFe/z54J3rpg5VWbP3sS8CuTfSTnvpeHuqDcacmaeVDaGujqwPWJW3MZg73i6jC9qa1ev0zfX8jd/eSmbGGdPjGfhR7PmXXhnZZS9ubHaigtMBIEBoWWQz9x2VNZYMvi8aa8EebGPbI6UK8/v1bs85OX/JSU0dj7CpSzEInuXUtW8HurD+duy2dumWmFHmBMFp6Q27I1frnFKGxUIgC7njbE1M4LbuxCGyxQztRYXmCgCI+CL85l7dyemKW12aTS0KaawY7Ff7I4l/vu05GhTKcU85FAqF0mrqA/ktXWp+TiNMhBvnYW6O6RHeNGSN4XQ452nyD7jUtrYHvjpuczYo7eJjUskjplOVuiprdFbplmbyzTOR1YmjMCA0C+hlR69/3RSdetDlbykTlQT3hthM+LfCJ8Rb21qJNd04q3yeuTsncrAQ6kFsQ8eSZGoXiHrgaSmh4z4u9jwXg3y2vdW+MxkPR1tub76+bzmwD3nbscl5lZI6LYSZ8ltDPZm/7RJcthNdWJCCYyAiqYO+vL9p9HSxnYcziZfi/GwtYDvXlkUHuFNUyg+x/ephcyvr+QhRXKldlEANRGtF+d6sL9CFhx0oprIfZ8f9PTRdybcOBh/A1X6AO5TKJC4LZq12m+aSjMAEMGEExgQRm0fosYev37owJU8+cxcnN6RQDf79E3z6ckvzPWKNzPUk9tB6k5NM1LS2A6JOeXIzbL6tXUdXaQMs4E7zzyHBe6O6fPdHWrnuNqy1/hPVyhsRk5VY+A31/Jjr97lBda2q65bamNqCN+uj4hZO1ux+pCVCSkwI3yXkn9o6y/XXld1OaaYGMCRLVExy+WYcRJFErcKScwp3/r99UIFv7rk7yLRLE3htfkM1oYQb7Y8g7Wi2H40JeFgSr6cYyz43TO6gyWaz3zZR0d74n4vJrTACDiZXYr89ec/EjoI9T2RrtGFeTqhSIBH/LaIWVLFnZGGZG4VUljbEphW0RB0qeBeUO+ACA9TUuqI6EJ52lFhtosNe5WvGztgqh3qZo2PqBQ3tNH/d527+eC1/Fhle+H+yagqB7rZ805ujQ52tDBRK9d/WZnwAiMArWul+zKPoPwh8tR1YwiD/ePmyBgi3v3z+ZXM7KpG+C2jmFWm0DSrlMhZCR0tCmwJncGxMzPivB81h2Osr4t7TNmse43Iaz9dZnLrWkmzAHVTCIPz42tLZFp2oq5MCoER0PGoj/7m4T9YJzJLFZ9+xEkVTA10ISbAk70hhM5e4OFEWB/8Zlkd0tDRDby2h4EZFQ3C8Ybi+20Cy0eKoxWrrKGuDizwcETNDfWKjA10IdyTlm6kp1M7z82e5zzFlJCp2PbuXvrhtKLIS4VVmy+j1SoQFvH3LOHN5TFIgMeEHG8RxaQRmBFSi3nM7b9e28ytayGBv8nThqivqw2vh81kL/BwZIe4O6Q7KNF0bu3qWZNd1ajd2fN0WryfP0ivf9DNuN/RDe2PeqGnnw+DQ8NAoTwuq0A4bM2Nwd7cGKxMDMe8MO62VJjlbM1WZs8sp7oxMOteY+Tx2yWRqSW1BHpIY4BR4R2L/eI+WRUYTzU2UHvnOVmYdAIzwsr9iSnn8ytVODWJzTtL/NgfRAUcdLI0JV0qCjLxXUo+8/CtIuR2pbx5nomVQUE38MoH68LDPJ0m5XOctAIj4ERmMfLK95cSBgZFDfqRY2R0tostb76HY8YiujN7pa/kDIITnfqOLvr5/MrIK2hN0JWiaoTMC0f9nG14p7avinG1MpsQXrnyMKkFRgC3toW+7ZcrB6+XSBMpTwHG6ZV8ArY+2Jvt52yDxkbOmXBOWeIoud8WdiyjOPz47RJWyX0FHSiV9N3YtWLekS/WhGxQztXIy6QXmBE+O5O+95PEWypZyyQvvs42PHdbi4zVs93TfWk26XTHKRPiS3mxoBLJrW4KLOA105ILq5DOXimWTBCOdMo0Z6otenD9oi1z3ewmxLNQFI3AjKJ3gE/fcfQa6xBHWicscnSjRhPm6ZRrY2ZUEe5FS7c2NaoNcLPjuVqRc+Ecp5iHND98BHnVTeHlTR3W6eX1SG17l6qLJReOFia8/S8t3LluEs0QSYNGYESQV92ILPzniYQH4vr3aprXaDHdBQ3xcBTO7qzwnQazXW0J72Z19fbTj98uFgqHoK0duYWyqlokZoSRHpy6norw4+ZI1qb5PpOmyyoLGoHB4KsLmXs/TEglX7cJ53fI1EAfAqba8qaYGI6xdIz1dcHKxBDMjfTBSF8X9LS1YXBoCPoHh6Czpw/aunqhtbsHhkY5MA4ODUNRfStS3NCGbyFJSICbPfpVTOiecBkCwk82NAIjAf7gEETH/c69zBWV94Z8XSS5UFOLTJUcf2tFzPPzvDTCIgGNwEgJWtdCf/9Yyg9JhfdU48QlkQny8pJY7MwN9eCjFYFxH0bPlSpPtQaNwMjMyawSBPnmjOQMjmr/vqt9BZ6CQ1XCvGicg68s3sZwtJpUnriKohEYOXjQ00ffn5S9+VR2aWQBr0lGD1IVvLhqrxWqqQCFArAuwJP9zhL/w/M9nC6opBBqjkZgFORWaW3g15ezY9mZqonhKhsacZMGJ6op742FvvEbF/jEO6lZJkWyoREYnEDrWujIN6cT7taTJyyAcpgYydhGeDHQm/3bWysnVFxcVaIRGJw5mVmMpJXVBe5LylJwelv90oSoHvluzJypduiLQd7xSIBnMm0CpAohExqBIZB/nE1L+Jh9nURdJ00yttHQHa3g+9eiYkLcHTXTzQShERiC6ecP0n/g5Ef+dL3gvex790kQg0ZVkEfc1gcz0rct9o8NnO5AyiUUEwmNwCgR/uAQvH/sWsLXydkksmomCthdShcrM/h6/eKYv/i7a6wVJaIRGBUwNAxwPAN971haEXL+TjnBjnuTtP8DAHbmxvBSMCPupSA6e/ZUzepmVaARGBJwLq8MScwuRSqbOpxSi2tI6imsKMQLnaWxASxiuLID3OzRFX7Tkr0drDSiomI0AkNCDl7JYX6aeJPV9ECKpPiT10D5s/LLZrmhsVFz9yz2cdV0f0iGRmBITElDKz31bk3kFW5VUG7V/cCKpg5yDRKrSNyW+ExN93aYUhvqRWOvDdAsOCQzGoFRI7r7BsLiLmWGtzx8xDgwGQaKnwiYi5U5bFwwgzV7ql3RSj/NIK06oREYNaaisT0wt+o+rYDXHFhS30pLLa5Bmjql6FaRmHBvZ9TazKho6Yyp6XbmJrWRM6am6+poa9z11RSNwExACnhNSEl9K3T29NM5d6sZfQODgNa1IEV10iRaIxZDPR0I93ZBTfR1i9xsLGD2VDu2ro42LJ81DdXT0dZ40U4wNAIzSWnv7g37Pas4vLbtofD/gnZQ0djB4hTXQN2T32RB0JvxdbGF+Z40jqWJAWfk91AvZ4igu2jCSU5SNAKjQYMGwtBSdQE0aNAwcdEIjAYNGghDIzAaNGggDI3AaNCggTD+fwAAAP//ocevz0NoEosAAAAASUVORK5CYII=;" parent="1" vertex="1">
          <mxGeometry x="624" y="351" width="50" height="50" as="geometry" />
        </mxCell>
        <mxCell id="P_P5RHC5jd1icgn2Sx9M-4" value="CORE RULE SET" style="text;html=1;strokeColor=none;fillColor=none;align=center;verticalAlign=middle;whiteSpace=wrap;rounded=0;fontColor=#125678;fontFamily=Consolas;fontSource=https%3A%2F%2Ffonts.googleapis.com%2Fcss%3Ffamily%3DConsolas;" parent="1" vertex="1">
          <mxGeometry x="589.19" y="327" width="119.62" height="35" as="geometry" />
        </mxCell>
        <mxCell id="i4G5Wfgao1dFJtLLStCQ-1" value="" style="shape=image;verticalLabelPosition=bottom;labelBackgroundColor=default;verticalAlign=top;aspect=fixed;imageAspect=0;image=data:image/png,iVBORw0KGgoAAAANSUhEUgAAAREAAABNCAYAAACBr1C2AAAACXBIWXMAAAsSAAALEgHS3X78AAASkklEQVR4nO2da2wc13XH/xYoQkumXkrjFRQ+ygFEShENm0vIrzAxuGqkBlbliI6QbIJA0Br9IMhIayl+pIs20AptsEhT1xTQ1siHQKsCBrrNw0zkxEhix8Molg05CJcxTIei3AwtkjHErLQrRKQgC1A/zJ3Z2dmZ2XnceZH3BxCcnZk9987s3HPPOffcO3fcvn0bjGDg0tkOAEnNbr19Mjz5KwEYLxfzgoMyxwA8afd7AKoAcuVifkxHZgcAAcCgDXlzAESyXSgX8wUrX+LS2aNks6RzWCwX86LOfoaH3MGUiH10Gr9RwxeMGrqLxqzmcauNj2KZj5WL+XGN3BLsKRA9TK+FS2eTAAoOypkCUCHbR8vFfJ3y4dLZlOZ8pohs0hJ0BaIAl87mAGQA9Nr86nEunW1oHFw6m4H7xgwAY1w6W9I2DBNolJkBMK7Z51aByHILJsePOixH/Z1xSJYcAGPlx6Wz8mYV9RaPoNouoaacSuVivoI1yqpUIqTX6iAfU+S//Llks/cuADjkojqnuHRW0PRuGRfy1MQBFLh0NuXjQ9zR/BRHGCpCYvmN0iyMWCDNlFIcwIjq84jRiSrFo7Z8SnrbTtzQMBNZJUIerAwkJdFB/iz1VKTRZSycl4Q7BSLDo+b/02YQwBjoKaagMFOCo5AatFsKFGQ0Q/0M6iodA0unBMn91Vp5oSeSSoQ0bgHOH6xDxDooNDmPVq8r19crrF5PVMlQklNQbRsFr/1EbemMAHhS6/5y6SwPIAepI6qgpnQEIBxWTSSVCKSe123PxFOoh1W0ykiEiWnsELvxkUhAGhGNe3Va41J65Za5JYN6ZSegPha3n/w/Dui6USXtf69dXWpKRDViwWv+AP2HQB7iEyHdKG3cwAwaD1WKggyniB7IjEN6+MLQw9IkQ0lOgZIcr1E6AaJArQbzZTeqoW0QRSMrGYHsFgBUaHQ6tpQIuSge0oPagVo8wknUvJf8jYDEHbh0dgrAWIjMcjHoCthkkEtnx8rF/NHmp0aGDAUZc2Ew+y2ithp4inK1SkZtyUzARUymQYnoWBTyNo1hvGYMQhrNyADIBD1eXy7mRZW5GBWeJPGRyAXotJARFLvD6nrkdPbxFOR6gaja9svlGkEtJlOFNBResKp4WwAlbyEDSWHQiIK7ZQRAiYyi6JlbE3Dv0tCOSZiR8rEsQBr2Teoo4Soo/77EOvWKDAUZcqPQwlOQ7QWiajsI1zQOyTM4xKWzc5AS9Ew7pHUki/EUpEYVBgUiEwcgEMsoSKoeyBQ9kKlGjo9o8SLoynsgk2ZuyPhaTgRzSS+Al7h0VjDrLNaBThajV8QhjcRo8XMEwouyRA9kahkhmbZRQdB8ppUbovf8hBaNC5EKqBpaZM8go3dwnb91ccQhHS1IpWfRmTex2jguXyPJrYnSyA0NK2TKZPSBpyB/LRGHFK/MaQ9EQYkA0rwJNVEzT/kAyx4nLquAcLmrhpBOY3+z8yxgZoXQCNjSZkrzOYxK/7jWIlmHxoqHEe3NpOViWIm30CgryAc2DsllDbsCUf/GNKyQaohSBayi7RzD+pudUlvxLYhGr+7VSEoS+pF7NV7cH9EDmVHneS6drUBS7DkK8goUZFjhBCQrj0fN4lRv2xnxFOQNj0e9aFAAucYWSBX3c7jTNeViXohg/oZCRPNP/OAURVmGrgzFBnqyXMznrJ6s6r151JSMvE/QyOIRbnq5dDZTLuYLLYhIr0hyRgTKYq24MyLlMhneM9EkUZGnVI4tVzdCWbNWyQEorEN0G8kcBRlWAlcihXJW00hQFNzfgk/ljJFRLy9IeSSXJr1cOptsibBrICKcEfbVTthnCfsZUI0DmFTNP5ERyH/11P3VuuxiSp47Qz0d2gdo9IhW3Bmvet45MCXoBQUL53iRBd10BTRVZ33SwiTJMA7v6pGU80TC3rvo+ZM06tx0UqGH63OIHsld61jJUA26gT5plP2pwomiOwbgMUgjRhOaY3Nk/zEAJ0FvOgcvWyIl0BmhmYMUbBHlAuB8gV2t3KjDB12BNcBUhFwG3uVxPUqks1XSFkgsjtdZLDwH+6/50EVWIqJbQQCO6b2TBNKM0hzI+gUOEXT2UbEQuHSW9+nB430oY60ThaCvTLPn14mr2yDTaESoXMxXuHR2FMAfHJRTBy135qSBAgEAkPHvky7k53T20XpgeAvnRCGrl2HdTQl6Zjhg8vw6nblud7Yy6Ty1bo9tZCUiupBRhbUMQyvn6HHSwFLQ2+cVLGs1GsQtDqUHHRNphpP6uVYGTmkBXGdQClY0IDGfnCwmpGvhUMz65GkIcYAYULmrnVF4u7I+FTxIPONJ2EBeoLlpWQavcbWLoJ7F61STeT2y47XpyVs4R6RQToqCDEZzaEzeCxonDbsXUtzxJQCvq//IC9j0oPHWBFG9xqoIZyM0di7YiULIwfjBoLFMohVEH8pg0KHXx2C5U5qNNtLuOOU1ecYgWSkdkEZNabSdOktEdChkv5VAkMXXFhrJFzxML+Y9kssIjmbWSNATTsUmx3kPyhxBzUp5CXTuQbVczItqJSK4EFYwO0iUjJtl6kYgrbfqxboivIVzWGA1WqSCroBL+KArYJFxoH5lMzcNZT+Xzo6bWCQ83Ce1xNG49odfeQFeKCuRgkxAGh07TUlWkFQhZVTSyKS0ZB0HiNDkeJjrrqZeiVBI794Pg/gIxdTxXi6dVc85oKFE/Bru82KeTBWA/HLyxzyQ7xfydeRA7/dIUZJjxBSke74LUir5CfL3I0ixOqOBiiqaz+/x4x1PbqnKr5LQvrxqCu4uIAljLUsrCHoUNdeIhnLya+KhF6n7ymsQy8X8OJfO/gh01ib1m5LqOkRK1zEKnVXrKC7JMKoK3gpmJ2qGUj1/N65PFOQNrRIR4U6JmJlhAugoEerRd/KiJzOFlKJQjEhBhhatdZMh5URtRraWcbhXIikK9TDEzvNHlIZg5dwIrTujxDi1q717mfNBU3YSoJqwM2bkQ5Mftdm0bSeItAWShzVDW24ANFv31gq9Ho7oQeNWrzVOqJWoniXiFQJFWeoFlmmsyyG/nGcctThLB6TejJZ/Kqg/eLXOasTdGgBKdjONa0jBu47xeTKdX154SH5ulG2HnVzYU/LnoBlp9U2JkAfDbcxFRn2jS6ATtOyFt28D9HPNlgz8c2tojCTo3RsaLs0oGlMLUi5lqpGf5WaLEM2h1rZkJVNBbeq+mjCPzFQhxYLqYjp17gwF96DZDaDVkNTlCJRkekkVPtbTZ7eGRs+pF2ik4dKMhGSotxeSohmB1FEdB/A89FPSw1BfPeQRtIY2rLVEAHfugfJAqSLSvOov5VCuGeOQfpAw4/tLpaPu1lC0XFOgo5C84hDqFX4Y3RlDBQLoKxERLpQIl86W4OM4N4kt+DWHxik5g/1er7OaQbRHawpw30HoDvUybDFmNnqp9y5eNy5HHMEkyuQCKNMqRuuhABRiUGbmOrF+cm7LCBAajT+l+RzGnl4Nrc5wClLiGw1Mfwc9JSJSKthL6hQdieUEtiiLCfKas15i2ijIinNhvDdNIcrX7apy2qHesMUcvPhtjpWL+WS5mB8FMERBnuk9o22J+IVeHTOgt4I1DXQj2QGRQbjujR0KFGSkKMjwHFp5LeqlSokb4lZR8WYHo6pEGswr0mtl/K6IAaaBKMo0VVLk3uT8Ko8yXrg0YUJUbdOwkryYXsGbHWxQIiHpOc04bVRHMiHocZ/ro2UK1hWI4LKsOauKivRObl2DKTRaBuNwb+UYXgNRgG4bhnqEKmwxEVG1zVOWJyO4lGl6z/RGZwD/VgyzS9NFocvFfIFLZyuQHna/RyVOQIpkW1XEY5BGD5wEo+dgfynAFKT756QhlQDktNdWLuZLZGqANqlLi97zVAWQkWeDmnAU7n5PtRISEa5Zsur7yVOQJ1KQocXUQjJSIgWEM4mrZGXiE8mR4OHNnBcjCnYnBZJciBSAIwC2k90fArihOk3Q+WrFiatEFAD1e0LqkqItVyV/nMQLMg5FiKrtHMJljagVqEBBnp4Mt3JNO8U7bt++7VI+g8FYyxhZIgyGW3g0mufqiWqMVQJTIj6Q/MGRJMKXn+Aprz7yzX+4q23TZ+v2vT9x7OnS//g5+lcqHXiBKS2PYUrEH8YQzkC1Z/z9r/4dX+wdBgDcvXkb+rk+CAu/9XuO0y6EM7a3qmBKhOEJ09fLyE2fAQDk8Cj6ub6Aa8TwCr1kMwaDwbAMUyIMBsMVTIkwGAxXsJgIQ5eBdg4PJ7ZjcPN2JNo2AQCWlq/g/auX8MriJKavl13Lf6RzCA911ZJHlz9awbmFEn64OImlmyuu5DP8gymRCPBU/24cvPdAw/75a4vY94t/NvzeYX4YR3Ye1D2258zXdBtqojWGZwc+hz1bUw3H+jlguOcBHLz3AGbLF3H87YIjZfLtZFpXPgAMbrkHmcEv4PvTP8Fzs6/als3wH6ZEIsBM5QPMli+iO96NWMsGzJYvAgDeWjCfT3d2aQbDH76DtvUxcG0cNsU2Yv7aIt5buqCrQB7u6MbX738c3Xd2YuXWDfx67i1MLEzi/5bLWPpoGQ/GezDSNYRP9z6Efq4P3939T3h24jmcrcxbuo54axte3vMNRf7PZn+J1xYnle9/pSuJT3UNKYpq68YePHH+lM27xfAblvbuA8kfHBFAIU/k9KeewOCWe/B3r33TcsO1+t1EawzF3d/ApthGTH34Dp5++5ShS5FojeFE8ksY7nkAK7du4G9f/RdTiyQ38ChGd+zFyq0biLVswPy1RTw+8W+G8vcltuEfh48g1rIB4+/9VBkqdsCu0oEXBKdfZliDBVYjxO8uXwAADHT8pe3v9sS7AcBQ+ZxIfklRIIfe+C/TmMTSzRU8cf4Uzl06j1jLBpy4P2OpDlYUCAC8vHQBz048BwAY3bEXA+2cJfmMYGBKJEKcX/o9AGBw8/aGY0/170bpwAsoHXgBidZY3bFEawybYhsVN0jLQDunWBVPv23dfXji/ClcWbmKfq4PD3d0W/rOt0wsHDVnK/MYf++nAICv3v05y3Vi+A9TIhFCtiI+cVd/w7Fd/CeV7c931i+r+WC8BwDwLrFktDxCzv/Z7C9tj4oUp18GAHyms/lSnlMfvmPLDfvPi1Jgdejj99qqE8NfWGA1YsyWL6Kf60OiNaY0+IF2TglWxlo2YLgrie+I55Tv3JeQLJfZ6iVdmfdu3gYA2Pyxu5AbeNRWfdpb2wBI82MwbX7uuQV7c++Wbq7oXi8jXDAlEjHevXwB/Vwf/jqxHS+SRilbEt+f/gn+pv+vMLjlnrpGdzdREpMVfSXStl5yf4Z7HvC07gvX/2T7O8sfSdfwYLwHLy/pW1KMYGFKJGLI1kR/vAcgSkR2ZV5ZnMSWdg57tqbw+c4hxRrpjnfjysrVpjkd5y6dx+U/22/oAPDHZXfJZ0bICq760bIn8hnuYUokYvx8aQbPoOY+yK7M/LVFTF8v48fiG9izNYVH+z+D74jnMNDOIdayARf+NGsoU7Zupi7P1LlBtLkvsd22NRFbL7lLdoe0Gf7BAqsRY+nmijIiAtRcmdfFNwFIjW3+2iK67+zEQDuHoQ4pqPqHq/quDFCzbnargrNecF+XvaVN1QqSEV6YEokgvydWxb7EtjpXRkZWKI90DiFJgqq/WZoxlPfiQklRTF+x2dDt0H1npy35X0+mAdSuhxFOmBKJIFOXJYUw0jVU58rIyAplF/9J8CR/o5kb8d2p/wUAfPW+Q5ZzPmQO88OWlYNV+Yf5YQxuuQdXVq7iv+fesFUfhr8wJRJBpisfAAA+3fsQgMaeevp6WXFp+rk+S+7Aiwsl/OJ9AbGWDfjXkadwmB9u+p19iW34XuopHNl5EF+2MDQ8W76oyDdSOonWGL6dTOPIzoNYuXUDx8+ZZ88ygocFViPI2cq8khMC1LsyMq+Lbyozfz+oWgtKPlMqIndzGaM79uLIzoNID+zDr8Q361yhrva70NfRg52dg9gU2wgAuLJyFd/SZLoe5oeVGAvXJqWtn373DEa6hrBnawrPPHQYo+WLeGthCjOVDxBvbUMysV2Ru3Lrhq3JfYzgYEokosxX5xUrQ2/o9pXFSUWJyO6PFXLTZ/CbpRkcultaF3V0x16M7tirX4drizgz+5ruiM7H1rcps47VPFMqYt/CJL52fwb9XJ/u2qvnLp3Hf7z7Y9drljD8gc3i9QFas3j9Rl446C/W18/Fma1ews+XZly7GQ93dOOBxCcU+X9cLuPs0gxN5cFm8foAs0QYhkxfL2Paw4WBzlbmmbuyCmBKxB8KYO8/CQIx6AqsBf4f6MWO3TaiG1gAAAAASUVORK5CYII=;" parent="1" vertex="1">
          <mxGeometry x="428.04" y="495.5" width="187.91" height="53" as="geometry" />
        </mxCell>
      </root>
    </mxGraphModel>
  </diagram>
</mxfile>
